<svg xmlns="http://www.w3.org/2000/svg" viewBox="0 0 4325.38 2690"><defs><style>.cls-1{isolation:isolate;}.cls-2{fill:#fee;}.cls-3{fill:#ffa299;}.cls-4{fill:#562349;}.cls-5{fill:#995979;}.cls-6{fill:#364f6b;}.cls-14,.cls-7,.cls-9{fill:#1a1a1a;}.cls-17,.cls-7{opacity:0.2;}.cls-8{fill:#e1e1e1;}.cls-10{fill:#fc5185;}.cls-11,.cls-14,.cls-17{mix-blend-mode:multiply;}.cls-11,.cls-14{opacity:0.3;}.cls-12{fill:#ad6989;}.cls-13{fill:#fee2b3;}.cls-15{fill:#2cbf7b;}.cls-16{fill:#2da66d;}.cls-17{fill:#2645a8;}.cls-18{fill:#033a3f;}.cls-19{fill:#027369;}.cls-20{fill:#fff;}</style></defs><g class="cls-1"><g id="Layer_2" data-name="Layer 2"><g id="illustration"><path class="cls-2" d="M377.4,1033.66c88.75-145.88,96.32-324.86,135.32-491.1S646.42,199,812.92,161.15c188.71-42.93,369,112.7,562.49,113.61,139.78.66,265.17-78.59,391.82-137.74A1465.68,1465.68,0,0,1,2448.72,1.39c112.71,5,233.86,27.61,310.85,110.07,45,48.16,69.78,111.68,110.29,163.63,113.39,145.38,324.27,171.73,507,146.91s361.94-88.75,546-78.81,383.65,126.73,401.25,310.26c12.24,127.67-65.64,245.78-149.53,342.79S3994.22,1186.66,3955.81,1309c-86.61,276,154.17,557,132,845.38-17.4,226.36-202.67,415.54-417.31,489.51s-451.71,50-670.76-9.59-427.32-153.42-644.26-220.3-449.83-106.47-670.76-54.22c-213.16,50.41-402.13,183.16-618.42,217.79-156.1,25-320-5.73-457.84-82.62-160.33-89.43-234-223.81-324.31-375.23C222.38,2016.2,130,1941,61.86,1843.42c-71.42-102.33-76-237.68-39.14-354.77C82.73,1298.1,277.25,1198.26,377.4,1033.66Z"/><ellipse class="cls-3" cx="2021.79" cy="1697.61" rx="1833.42" ry="88.43"/><path class="cls-4" d="M1852.16,449.21a51.68,51.68,0,0,1,0-91.54,64.49,64.49,0,0,1,57.61,0,51.69,51.69,0,0,1,0,91.54,64.58,64.58,0,0,1-57.61,0Zm42.66-20.51a25.88,25.88,0,0,0,9.82-10.18,33.32,33.32,0,0,0,0-30.17,26,26,0,0,0-9.82-10.18,28.41,28.41,0,0,0-27.72,0,26,26,0,0,0-9.82,10.18,33.32,33.32,0,0,0,0,30.17,25.88,25.88,0,0,0,9.82,10.18,28.41,28.41,0,0,0,27.72,0Z"/><path class="cls-4" d="M1974.3,449.21a51.68,51.68,0,0,1,0-91.54,64.49,64.49,0,0,1,57.61,0,51.68,51.68,0,0,1,0,91.54,64.58,64.58,0,0,1-57.61,0ZM2017,428.7a26,26,0,0,0,9.82-10.18,33.41,33.41,0,0,0,0-30.17,26.08,26.08,0,0,0-9.82-10.18,28.41,28.41,0,0,0-27.72,0,25.94,25.94,0,0,0-9.82,10.18,33.32,33.32,0,0,0,0,30.17,25.81,25.81,0,0,0,9.82,10.18,28.41,28.41,0,0,0,27.72,0Z"/><path class="cls-4" d="M2144.31,357.45a35.64,35.64,0,0,1,0,65.55q-10.11,4.56-23.82,4.55h-17.61V454h-28.59V352.9h46.2Q2134.2,352.9,2144.31,357.45ZM2132,401.2q4.47-3.82,4.48-10.9t-4.48-11q-4.47-3.9-13.28-3.9h-15.88V405h15.88Q2127.57,405,2132,401.2Z"/><path class="cls-4" d="M2192.39,453q-11.55-3-18.77-8.08L2183,423.8a60.82,60.82,0,0,0,15.74,7.22,60.15,60.15,0,0,0,17.61,2.74q16.47,0,16.46-8.23c0-2.89-1.57-5-4.69-6.43s-8.16-2.86-15.09-4.4a142.3,142.3,0,0,1-19.06-5.27,32.21,32.21,0,0,1-13.14-9q-5.49-6.21-5.48-16.75a29,29,0,0,1,5-16.68q5.06-7.44,15.09-11.77t24.62-4.33a86.92,86.92,0,0,1,19.63,2.24,60,60,0,0,1,17,6.57L2248,380.91q-14.45-7.79-28-7.79-8.52,0-12.42,2.53a7.57,7.57,0,0,0-3.89,6.56q0,4.05,4.62,6.07t14.87,4.18a139.54,139.54,0,0,1,19.13,5.28,33,33,0,0,1,13.14,8.95q5.55,6.13,5.56,16.67a28.42,28.42,0,0,1-5.06,16.46q-5.05,7.37-15.16,11.77t-24.54,4.4A93.5,93.5,0,0,1,2192.39,453Z"/><path class="cls-4" d="M2285.81,453q-11.55-3-18.77-8.08l9.38-21.08a61,61,0,0,0,15.74,7.22,60.22,60.22,0,0,0,17.62,2.74q16.45,0,16.46-8.23,0-4.33-4.7-6.43t-15.09-4.4a142.54,142.54,0,0,1-19-5.27,32.08,32.08,0,0,1-13.14-9q-5.49-6.21-5.49-16.75a29,29,0,0,1,5.05-16.68q5.05-7.44,15.09-11.77t24.62-4.33a86.85,86.85,0,0,1,19.63,2.24,60,60,0,0,1,17,6.57l-8.8,21.22q-14.45-7.79-28-7.79c-5.69,0-9.82.84-12.42,2.53a7.56,7.56,0,0,0-3.9,6.56q0,4.05,4.62,6.07t14.87,4.18a139.13,139.13,0,0,1,19.13,5.28,32.89,32.89,0,0,1,13.14,8.95q5.57,6.13,5.56,16.67a28.42,28.42,0,0,1-5.06,16.46q-5.05,7.37-15.15,11.77t-24.55,4.4A93.48,93.48,0,0,1,2285.81,453Z"/><path class="cls-4" d="M2369,450.65a16.81,16.81,0,0,1-.07-23.39,17.81,17.81,0,0,1,23.6,0,17,17,0,0,1-.07,23.39,17.2,17.2,0,0,1-23.46,0Z"/><path class="cls-4" d="M2409.83,450.65a16.81,16.81,0,0,1-.07-23.39,17.81,17.81,0,0,1,23.6,0,17,17,0,0,1-.07,23.39,17.2,17.2,0,0,1-23.46,0Z"/><path class="cls-4" d="M2450.68,450.65a15.62,15.62,0,0,1-4.76-11.69,15.43,15.43,0,0,1,4.69-11.7,17.82,17.82,0,0,1,23.61,0,15.56,15.56,0,0,1,4.62,11.7,15.75,15.75,0,0,1-4.69,11.69,17.21,17.21,0,0,1-23.47,0Z"/><path class="cls-4" d="M1671,1878.57a25.8,25.8,0,0,1,0,47.45,41.63,41.63,0,0,1-17.24,3.29H1641v19.13h-20.69v-73.16h33.45A41.63,41.63,0,0,1,1671,1878.57Zm-8.88,31.67q3.24-2.77,3.24-7.89a10,10,0,0,0-3.24-7.95q-3.24-2.82-9.62-2.82H1641V1913h11.5Q1658.89,1913,1662.13,1910.24Z"/><path class="cls-4" d="M1740.52,1897.28q7.43,6.42,7.42,19.7v31.46h-18.5v-7.32q-4.29,8.27-16.72,8.26a26.26,26.26,0,0,1-11.4-2.3,16.86,16.86,0,0,1-7.26-6.22,16.44,16.44,0,0,1-2.46-8.93,14.5,14.5,0,0,1,6.17-12.49q6.17-4.45,19-4.45h11.29q-.52-9-12-9a27.63,27.63,0,0,0-8.26,1.31,21.87,21.87,0,0,0-7.1,3.61l-6.69-13.49a37,37,0,0,1,11.44-4.86,54.46,54.46,0,0,1,13.54-1.72Q1733.09,1890.85,1740.52,1897.28Zm-16.2,37.89a9.37,9.37,0,0,0,3.76-4.92v-4.91h-8.57q-8.67,0-8.68,5.75a5.07,5.07,0,0,0,2,4.18,8.53,8.53,0,0,0,5.44,1.57A11,11,0,0,0,1724.32,1935.17Z"/><path class="cls-4" d="M1822.25,1891.79v46.3q0,15.78-8.57,23.68t-24.66,7.89a62.92,62.92,0,0,1-15.68-1.88,37.12,37.12,0,0,1-12.44-5.54l7.21-13.9a25.42,25.42,0,0,0,8.73,4.44,35.3,35.3,0,0,0,10.4,1.62q7.83,0,11.5-3.45t3.65-10.24v-1.89q-5.75,6.69-16.82,6.69a29.17,29.17,0,0,1-13.91-3.39,25.81,25.81,0,0,1-10.13-9.62,29.08,29.08,0,0,1,0-28.64,25.79,25.79,0,0,1,10.13-9.61,29.07,29.07,0,0,1,13.91-3.4q12.12,0,17.76,7.84v-6.9Zm-23.15,34.7a11.73,11.73,0,0,0,.05-16.67,12.59,12.59,0,0,0-8.88-3.19,12.81,12.81,0,0,0-8.94,3.19,11.61,11.61,0,0,0,.06,16.67,12.67,12.67,0,0,0,8.88,3.24A12.49,12.49,0,0,0,1799.1,1926.49Z"/><path class="cls-4" d="M1892.6,1925.13h-41.19a11.52,11.52,0,0,0,4.86,6.74,16.23,16.23,0,0,0,9,2.36,19.75,19.75,0,0,0,7.06-1.15,20.69,20.69,0,0,0,6-3.77l10.45,10.87q-8.25,9.21-24.14,9.2a38.56,38.56,0,0,1-17.46-3.76,27.71,27.71,0,0,1-15.78-25.61,27.94,27.94,0,0,1,15.16-25.4,35.67,35.67,0,0,1,31.35-.26,26.61,26.61,0,0,1,10.92,10.14,29.71,29.71,0,0,1,4,15.73C1892.91,1920.36,1892.8,1922,1892.6,1925.13ZM1855,1907.57a11.81,11.81,0,0,0-3.92,7.11h23.2a11.81,11.81,0,0,0-3.92-7.11,12.6,12.6,0,0,0-15.36,0Z"/><path class="cls-4" d="M2003.07,1875.28v73.16h-17l-32.3-39v39h-20.28v-73.16h17l32.3,39v-39Z"/><path class="cls-4" d="M2028.78,1945.62a28,28,0,0,1-15.57-25.61,27.93,27.93,0,0,1,15.52-25.45,38.5,38.5,0,0,1,33,0,27.73,27.73,0,0,1,11.39,10.35,28.24,28.24,0,0,1,4.08,15.1,28.55,28.55,0,0,1-4.08,15.16,28,28,0,0,1-11.39,10.45,37.93,37.93,0,0,1-32.93,0Zm25-15.63q3.33-3.6,3.34-10t-3.34-9.82a12.11,12.11,0,0,0-17.15,0q-3.34,3.54-3.34,9.82t3.34,10a12,12,0,0,0,17.15,0Z"/><path class="cls-4" d="M2125.47,1946.14a19.75,19.75,0,0,1-6.12,2.4,33.73,33.73,0,0,1-7.68.84q-11.09,0-17-5.43t-6-16.2v-19h-8.25v-14.84h8.25v-14.74h19.86v14.74h13v14.84h-13v18.82a6.66,6.66,0,0,0,1.62,4.75,5.68,5.68,0,0,0,4.34,1.73,10.54,10.54,0,0,0,6.06-1.78Z"/><path class="cls-4" d="M2185.15,1891.27v16.09h32.29v16h-32.29v25.08h-20.7v-73.16h57.38v16Z"/><path class="cls-4" d="M2241.38,1945.62a28,28,0,0,1-15.57-25.61,27.88,27.88,0,0,1,15.52-25.45,38.48,38.48,0,0,1,33,0,27.76,27.76,0,0,1,11.4,10.35,28.32,28.32,0,0,1,4.07,15.1,28.63,28.63,0,0,1-4.07,15.16,28.06,28.06,0,0,1-11.4,10.45,37.91,37.91,0,0,1-32.92,0Zm25-15.63q3.34-3.6,3.34-10t-3.34-9.82a12.1,12.1,0,0,0-17.14,0q-3.34,3.54-3.35,9.82t3.35,10a12,12,0,0,0,17.14,0Z"/><path class="cls-4" d="M2358.55,1891.79v56.65h-18.92v-6.06a20.26,20.26,0,0,1-7.53,5.22,24.44,24.44,0,0,1-9.3,1.78q-11,0-17.51-6.48t-6.53-19.44v-31.67h19.86v28.43q0,6.38,2.4,9.3a8.55,8.55,0,0,0,7,2.93,9.91,9.91,0,0,0,7.68-3.29q3-3.3,3-10.09v-27.28Z"/><path class="cls-4" d="M2425.18,1897.12q6.42,6.27,6.43,18.92v32.4h-19.86v-29.16q0-11.61-9.31-11.6a10.61,10.61,0,0,0-8.2,3.34q-3.09,3.35-3.08,10v27.38H2371.3v-56.65h18.91V1898a22.51,22.51,0,0,1,7.95-5.28,26.87,26.87,0,0,1,10-1.83Q2418.75,1890.85,2425.18,1897.12Z"/><path class="cls-4" d="M2505.08,1870.88v77.56h-18.91v-5.64q-5.55,6.59-16.62,6.58a28.19,28.19,0,0,1-14.11-3.6,26.11,26.11,0,0,1-10.09-10.3,34,34,0,0,1,0-30.89,25.83,25.83,0,0,1,10.09-10.19,28.46,28.46,0,0,1,14.11-3.55q10.13,0,15.68,5.85v-25.82ZM2482.19,1930q3.34-3.6,3.35-10t-3.29-9.82a11.1,11.1,0,0,0-8.52-3.56,11.24,11.24,0,0,0-8.57,3.56q-3.35,3.54-3.35,9.82t3.35,10a11.14,11.14,0,0,0,8.57,3.61A11,11,0,0,0,2482.19,1930Z"/><path class="cls-4" d="M2219.63,2006.37h-314.8a6.25,6.25,0,0,0,0,12.49h314.8a6.25,6.25,0,0,0,0-12.49Z"/><path class="cls-5" d="M1505.56,1234.84V1055.75H1224.15v179.09H1010.43l428.9-615.52H1130.82L658.25,1277v194.19h556.86v201.65h290.45V1471.18h156.53V1234.84Z"/><path class="cls-5" d="M2591.42,851.82Q2532,727.65,2426.67,662.94t-239.32-64.72q-135.45,0-240.82,64.72T1781.72,851.82q-59.45,124.17-59.41,294.23t59.41,294.23q59.43,124.18,164.81,188.89t240.82,64.71q134,0,239.32-64.71t164.75-188.89q59.45-124.17,59.46-294.23T2591.42,851.82ZM2307,1377.09q-44.37,73-119.63,73-76.77,0-121.14-73t-44.42-231q0-158,44.42-231t121.14-73q75.27,0,119.63,73t44.42,231Q2351.4,1304.08,2307,1377.09Z"/><path class="cls-5" d="M3590,1234.84V1055.75H3308.55v179.09H3094.88l206.76-296.7L3483.3,677.42l40.49-58.1H3215.27L2742.7,1277v194.19h556.82v201.65H3590V1471.18h156.53V1234.84Z"/><path class="cls-4" d="M1493.31,1661.12H1192.75V1459.45H635.9V1258.63l475-661.11h320.78l-428.92,615.55h199V1034h291.53v179.1h156.53v246.38H1493.31ZM1202.85,1651h280.37V1449.35h156.52V1223.16H1483.22V1044.07H1211.88v179.09H983.45l428.93-615.55H1116.11L646,1261.88v187.47h556.86Z"/><path class="cls-4" d="M2163.44,1651.89c-90.86,0-172.76-22-243.44-65.46s-126.83-107.7-166.71-191c-39.78-83-59.94-182.77-59.94-296.41s20.16-213.37,59.94-296.41c39.86-83.27,96-147.53,166.71-191s152.63-65.47,243.44-65.47c89.79,0,171.19,22,241.94,65.47s126.83,107.73,166.72,191C2611.87,885.7,2632,985.42,2632,1099s-20.16,213.32-59.93,296.41c-39.91,83.3-96,147.57-166.72,191S2253.28,1651.89,2163.44,1651.89Zm0-1095.65c-88.92,0-169,21.52-238.16,64S1801.4,725.49,1762.39,807c-39.11,81.67-59,179.93-59,292s19.84,210.38,59,292,93.83,144.36,162.89,186.75h0c69.07,42.44,149.2,64,238.16,64,87.95,0,167.57-21.52,236.66-64s123.84-105.24,162.89-186.76c39.12-81.72,59-180,59-292s-19.83-210.34-59-292c-39-81.49-93.84-144.32-162.89-186.76S2251.34,556.24,2163.44,556.24Zm0,851.84c-52.84,0-95.05-25.38-125.46-75.42-30-49.21-45.14-127.82-45.14-233.64S2008,914.61,2038,865.38c30.42-50,72.64-75.42,125.46-75.42,51.81,0,93.51,25.37,124,75.42,29.94,49.28,45.13,127.89,45.13,233.64s-15.19,184.39-45.13,233.64h0C2257,1382.7,2215.26,1408.08,2163.44,1408.08Zm0-608c-49.05,0-88.37,23.75-116.84,70.57-29,47.63-43.66,124.48-43.66,228.4s14.69,180.79,43.66,228.4c28.46,46.82,67.77,70.56,116.84,70.56,48.73,0,86.46-23.08,115.34-70.56,29-47.66,43.66-124.5,43.66-228.4s-14.69-180.72-43.66-228.4C2250.28,823.8,2211.48,800.05,2163.44,800.05Z"/><path class="cls-4" d="M3571.16,1630.82H3270.59V1429.15H2713.73V1228.33l.95-1.32,474.09-659.79h320.79l-5.53,7.93-423.4,607.62h199v-179.1h291.54v179.1h156.51v246.38H3571.16Zm-290.47-10.1h280.37V1419.05h156.52V1192.86H3561.06V1013.77H3289.72v179.09H3061.29l5.53-7.93,423.39-607.62H3194l-470.12,654.27v187.47h556.86Z"/><path class="cls-6" d="M3613.72,953.63s6,14,2.31,14-11.21-16.48-14.76-17.85l-1.07-.47.44-4.18,6-.71Z"/><path class="cls-6" d="M3583.22,924.42l9.06,6s2.24.41,5.15,1.12c4.6,1.07,10.93,2.86,12.74,4.75,2.92,3.07,10.27,7.86,15.33,7.34s1.47-7,.27-6.64-10.54-6.7-9.61-11.64,16.66-1.86,16.54,9.22c-1.08,16.45,4.79,13.46,4.79,13.46,4-.39,2.28-22.55,2.28-24.27s-11.2-9.49-11.86-9.88-11.08.54-16.56,2.3c-2.95,1-7.66.87-11.37.61-3.15-.23-5.6-.61-5.6-.61l-5-.16Z"/><path class="cls-7" d="M3583.22,924.42l9.06,6s2.24.41,5.15,1.12c-1-7.91.62-12.31,2.55-14.75-3.15-.23-5.6-.61-5.6-.61l-5-.16Z"/><path class="cls-4" d="M3464.77,894.42l12.83,39.21s33.85,4.79,58.4,2.93c23.44-1.79,53.46-5.77,56.1-6.12l.18,0c-3.46-8.53,2.68-14.94,2.68-14.94-6.41-2.22-24.54-2.78-42.22-2.76h0c-20.68,0-40.73.89-40.73.89a340.46,340.46,0,0,0-10.89-42.86,354.17,354.17,0,0,0-16.66-42.84h-8.19Z"/><polygon class="cls-6" points="3593.26 1182.82 3587.74 1208.59 3567.3 1207.71 3570.79 1175.41 3593.26 1182.82"/><path class="cls-8" d="M3558.71,1221.63c.06,3.59,1,6.86,3.58,8.92,8.72,6.93,85.52,1.68,85.27-3.11a7.71,7.71,0,0,0-3.63-6.39C3623.54,1225,3588.17,1229.53,3558.71,1221.63Z"/><path class="cls-9" d="M3558.71,1221.63c29.46,7.9,64.83,3.36,85.22-.58l-.2-.11s-20.4-12.43-51.19-20.27c0,0-8.21,8.36-29.19,1.95C3563.35,1202.62,3558.5,1213,3558.71,1221.63Z"/><path class="cls-4" d="M3563.74,1197.43a19.2,19.2,0,0,1,5-2.54,26.83,26.83,0,0,1,6.69-1.53,36.69,36.69,0,0,1,15.26,1.68,54.14,54.14,0,0,1,6.19,2.39s6.12-18.43,12.78-41.54c7-24.52,14.73-54.31,16.37-73a64.21,64.21,0,0,0-20.21-26.2c-8.49-6.56-20.08-12.09-35.62-13.44,0,0-1.79,19.15-3.61,44.5C3563.92,1124.34,3561.23,1173.82,3563.74,1197.43Z"/><path class="cls-7" d="M3563.74,1197.43a19.2,19.2,0,0,1,5-2.54,26.83,26.83,0,0,1,6.69-1.53c.76-33.71,18.69-98,30.39-136.66-8.49-6.56-20.08-12.09-35.62-13.44,0,0-1.79,19.15-3.61,44.5C3563.92,1124.34,3561.23,1173.82,3563.74,1197.43Z"/><path class="cls-6" d="M3435,843.9l38.41,2.84s.7-30.08-5-34a5.75,5.75,0,0,1-2.15-2.45c-1.89-4,1.49-9.15,1.49-9.15l0,.05c.73.87,13.47,16,19.17,13.42,5.85-2.66,5.85-16.27,5.85-16.27s11.21,5.61,9.61-2.4,1.6-25.33,5.87-32.8a15.53,15.53,0,0,0,1.33-3.2c3.54-11.64-2.41-24-13.34-29.44-49.17-24.19-52.47,23.59-51.83,45.62.71,24-6.57,27.56-6.57,27.56Z"/><polygon class="cls-6" points="3674.3 1169.9 3688.84 1191.88 3673.9 1205.86 3653.28 1180.75 3674.3 1169.9"/><path class="cls-8" d="M3676.58,1217.28c2.15,2.22,4.67,3.74,7.51,3.5,9.57-.77,54.82-49.31,51.84-52.18a6.65,6.65,0,0,0-6-1.88C3719.37,1181.21,3699.78,1204.9,3676.58,1217.28Z"/><path class="cls-9" d="M3676.58,1217.28c23.2-12.38,42.79-36.07,53.3-50.56l-.19.06s-20.15,4.19-44.15,17.38c0,0-.25,10.1-17.23,18.42C3668.31,1202.58,3671.39,1212,3676.58,1217.28Z"/><path class="cls-4" d="M3458.11,1060.33c82.16,15.46,126.44,11.2,126.44,11.2s26.68,71,77.9,122.16a11.72,11.72,0,0,1,.33-1.37c1.06-3.63,5.08-13.23,18-12.59a15.3,15.3,0,0,1,1.62.1s-21.58-114.17-60-149.37c0,0-83.22-26.68-132.3-33.61-23.92-3.41-43.16-6.79-56.58-9.34-14.13-2.72-21.85-4.54-21.85-4.54S3376,1044.85,3458.11,1060.33Z"/><path class="cls-7" d="M3464.77,894.42l12.83,39.21s33.85,4.79,58.4,2.93,56.28-6.14,56.28-6.14c-18.05-10-82.68-10-82.68-10s-1.07-6.63-3.74-17.33c-1.11-4.45-4.28-21.3-4.76-32.34a354.17,354.17,0,0,0-16.66-42.84h-8.19Z"/><path class="cls-7" d="M3458.11,1060.33c82.16,15.46,126.44,11.2,126.44,11.2s26.68,71,77.9,122.16c-2-3-4-6-5.91-9-.92-1.43-1.81-2.84-2.68-4.28-38.55-62.34-50.73-123.13-50.73-123.13s-140.39-1.06-166-22.4c-15.46-12.89-10.19-33.26-3.59-47.39-14.13-2.72-21.85-4.54-21.85-4.54S3376,1044.85,3458.11,1060.33Z"/><path d="M3527.39,718.71a4.25,4.25,0,0,1,4.92,5.13c-2.66,11.39-10.54,32.4-31.69,23.15-28.46-12.45-33.79-4.44-34.15,4.62,0,0-4.62-11.91-11.91-3.91-4.85,4.63,15.29,30.41-2,31.3s-23.83-36.45-23.83-41.79.54-40,29.7-37.52C3485.24,702,3504.82,722.39,3527.39,718.71Z"/><path class="cls-10" d="M3394.09,991s27.74,16.88,62.59,11.55c6.66.44,12.53,1.41,17.91,2.22,7.65,1.14,14.25,1.93,20.52.27,10.66-2.84,11.37-1.78,9.25-17.07-1.33-9.46-4.42-31.62-6.93-53.61-1.54-13.53-2.84-27-3.4-37.43-1.41-27.39-6.39-65.1-9.59-69s-11.12-14.24-15.16-14.24c0,0-10.09,13.78-28.51-13.46,0,0-11.82,6.18-14.67,12.92s-10,25.09-10,33.61S3422.91,934.42,3394.09,991Z"/><path class="cls-4" d="M3553.45,1000.85l81.33-26.47a5.57,5.57,0,0,1,7.09,6.81L3629.23,1026a5.57,5.57,0,0,1-6.8,3.87l-68.69-18.36A5.57,5.57,0,0,1,3553.45,1000.85Z"/><path class="cls-7" d="M3553.74,1011.53l68.69,18.36a5.57,5.57,0,0,0,6.8-3.87l12.63-44.84a5.55,5.55,0,0,0-6.32-7A42.67,42.67,0,0,1,3562,998.07l-8.55,2.78A5.57,5.57,0,0,0,3553.74,1011.53Z"/><path class="cls-9" d="M3666.86,865.41a1.48,1.48,0,0,1,1.8-1l6.05,1.54a1.47,1.47,0,0,1,1.07,1.82l-27.67,101.81-8.93-2.27Z"/><path class="cls-9" d="M3531.43,1008.89,3654.23,969a1.34,1.34,0,0,0,.85-1.69l-2.14-6.59a1.33,1.33,0,0,0-1.68-.86l-122.79,39.87a1.33,1.33,0,0,0-.86,1.68l2.14,6.6A1.33,1.33,0,0,0,3531.43,1008.89Z"/><rect class="cls-8" x="3580.32" y="976.32" width="65.26" height="2.35" transform="translate(7351.17 791.47) rotate(162.01)"/><rect class="cls-8" x="3567.88" y="989.88" width="6.58" height="2.35" transform="matrix(-0.95, 0.31, -0.31, -0.95, 7273.84, 830.85)"/><rect class="cls-8" x="3558.92" y="992.79" width="6.58" height="2.35" transform="matrix(-0.95, 0.31, -0.31, -0.95, 7257.25, 839.3)"/><path class="cls-8" d="M3648.25,966a1.08,1.08,0,0,0,1.35.69,1.07,1.07,0,1,0-1.35-.69Z"/><path class="cls-6" d="M3575.35,943.09s9,6,9.47,6.74a15.6,15.6,0,0,0,4,1.58c2.51.79,5.87,1.7,9.21,2.47.19,0,.35.1.5.12s.31.07.46.11l.14,0c2.51.56,4.92,1,6.89,1.22,7.2.81,12.94,7.89,15.6,9.28a8.52,8.52,0,0,0,7.47.49c1.43-.53-5.37-6.12-11.12-10.58,5.64,4,13.15,8.9,17.57,9.76a4.84,4.84,0,0,0,2.26,0c5.85-1.9-7.63-10.78-16.43-17.57-6.72-5.18-22.72-11.45-29.94-14.13-2.26-.85-3.67-1.35-3.67-1.35l-11,3.47Z"/><path class="cls-7" d="M3575.35,943.09s9,6,9.47,6.74a15.6,15.6,0,0,0,4,1.58c2.51.79,5.87,1.7,9.21,2.47-2.05-.66-6.43-2.86-8.78-10.12a11.47,11.47,0,0,1,2.18-11.19c-2.26-.85-3.67-1.35-3.67-1.35l-11,3.47Z"/><path class="cls-7" d="M3428.78,890.5c14.75,51.93,39.87,70.29,44,86.72,1.68,6.64,2,17.26,1.79,27.53,7.65,1.14,14.25,1.93,20.52.27,10.66-2.84,11.37-1.78,9.25-17.07-1.33-9.46-4.42-31.62-6.93-53.61a29.85,29.85,0,0,1-2.68-3.32c-5-7.8-29.35-58.3-30-64.36s-4.87-22.76-4.87-22.76L3430.48,833S3414,838.57,3428.78,890.5Z"/><path class="cls-4" d="M3426.46,856.7a113.56,113.56,0,0,0,4.21,13.43c14.73,39.48,52.78,95,52.78,95,33.88.79,101.37-15.27,101.37-15.27-5.73-8.75-.48-15.35,1.9-17.69.63-.6,1-.92,1-.92-2.82-1.45-7.16-2.55-12.41-3.34-24.87-3.77-70-1.09-70-1.09s-25.85-65.11-32.51-85.73S3417.22,818,3426.46,856.7Z"/><path class="cls-7" d="M3466.23,810.33c-1.89-4,1.49-9.15,1.49-9.15s-5.44-7.24-7.74-14.62C3460,786.56,3458.59,803.8,3466.23,810.33Z"/><polygon class="cls-4" points="594.63 1085.92 729.68 1085.92 725.76 1072.07 590.71 1072.07 594.63 1085.92"/><polygon class="cls-4" points="619.12 1172.49 754.17 1172.49 750.25 1158.63 615.2 1158.63 619.12 1172.49"/><polygon class="cls-4" points="643.61 1259.06 778.65 1259.06 774.74 1245.2 639.69 1245.2 643.61 1259.06"/><polygon class="cls-4" points="668.09 1345.63 803.14 1345.63 799.22 1331.78 664.17 1331.78 668.09 1345.63"/><polygon class="cls-4" points="692.58 1432.2 827.63 1432.2 823.71 1418.35 688.66 1418.35 692.58 1432.2"/><polygon class="cls-4" points="717.07 1518.77 852.12 1518.77 848.2 1504.91 713.15 1504.91 717.07 1518.77"/><polygon class="cls-4" points="741.56 1605.34 876.61 1605.34 872.69 1591.48 737.64 1591.48 741.56 1605.34"/><polygon class="cls-4" points="890.28 1703.16 918.27 1703.16 729.55 1035.99 701.56 1035.99 890.28 1703.16"/><polygon class="cls-4" points="755.23 1703.16 783.23 1703.16 594.5 1035.99 566.51 1035.99 755.23 1703.16"/><polygon class="cls-4" points="705.49 1072.06 701.57 1085.91 566.51 1085.91 570.43 1072.06 705.49 1072.06"/><polygon class="cls-4" points="680.98 1158.63 677.07 1172.48 542.03 1172.48 545.95 1158.63 680.98 1158.63"/><polygon class="cls-4" points="656.5 1245.21 652.59 1259.06 517.53 1259.06 521.45 1245.21 656.5 1245.21"/><polygon class="cls-4" points="632 1331.79 628.09 1345.62 493.05 1345.62 496.97 1331.79 632 1331.79"/><polygon class="cls-4" points="607.52 1418.34 603.61 1432.19 468.55 1432.19 472.49 1418.34 607.52 1418.34"/><polygon class="cls-4" points="583.04 1504.92 579.13 1518.77 444.07 1518.77 447.99 1504.92 583.04 1504.92"/><polygon class="cls-4" points="558.54 1591.49 554.63 1605.34 419.59 1605.34 423.51 1591.49 558.54 1591.49"/><g class="cls-11"><polygon class="cls-9" points="419.59 1605.34 446.47 1605.34 450.39 1591.49 423.51 1591.49 419.59 1605.34"/><polygon class="cls-9" points="444.07 1518.77 470.97 1518.77 474.89 1504.92 447.99 1504.92 444.07 1518.77"/><polygon class="cls-9" points="468.55 1432.19 495.45 1432.19 499.37 1418.34 472.49 1418.34 468.55 1432.19"/><polygon class="cls-9" points="493.05 1345.62 519.95 1345.62 523.85 1331.79 496.97 1331.79 493.05 1345.62"/><polygon class="cls-9" points="517.53 1259.06 544.43 1259.06 548.35 1245.21 521.45 1245.21 517.53 1259.06"/><polygon class="cls-9" points="542.03 1172.48 568.91 1172.48 572.83 1158.63 545.95 1158.63 542.03 1172.48"/><polygon class="cls-9" points="570.43 1072.06 566.51 1085.91 593.41 1085.91 597.33 1072.06 570.43 1072.06"/></g><g class="cls-11"><polygon class="cls-9" points="523.85 1605.34 550.73 1605.34 554.65 1591.49 527.77 1591.49 523.85 1605.34"/><polygon class="cls-9" points="548.33 1518.77 575.23 1518.77 579.15 1504.92 552.25 1504.92 548.33 1518.77"/><polygon class="cls-9" points="572.81 1432.19 599.71 1432.19 603.63 1418.34 576.75 1418.34 572.81 1432.19"/><polygon class="cls-9" points="597.31 1345.62 624.21 1345.62 628.11 1331.79 601.23 1331.79 597.31 1345.62"/><polygon class="cls-9" points="621.79 1259.06 648.69 1259.06 652.61 1245.21 625.71 1245.21 621.79 1259.06"/><polygon class="cls-9" points="646.29 1172.48 673.17 1172.48 677.09 1158.63 650.21 1158.63 646.29 1172.48"/><polygon class="cls-9" points="674.69 1072.06 670.77 1085.91 697.67 1085.91 701.59 1072.06 674.69 1072.06"/></g><polygon class="cls-12" points="405.91 1703.16 377.92 1703.16 566.64 1035.99 594.63 1035.99 405.91 1703.16"/><polygon class="cls-12" points="540.96 1703.16 512.96 1703.16 701.69 1035.99 729.68 1035.99 540.96 1703.16"/><rect class="cls-4" x="542.05" y="1008.29" width="212.1" height="33.47" rx="3.1"/><path d="M664.11,1205.84s-30.26,17.53-81.94-6c0,0,22.49-16.06,50.61-13.92S664.11,1205.84,664.11,1205.84Z"/><path d="M562.89,1209.85s-36.95,15.67-84.34-19.27c0,0,24.9-24.9,48.59-24.9S562.89,1209.85,562.89,1209.85Z"/><path class="cls-6" d="M535.85,1224.45s8.83-27.71,10.17-31.6-29.19-12.45-29.19-12.45,5.63,27.59,3.35,39.64-.67,15.12-.67,15.12Z"/><path class="cls-9" d="M515.09,1244.94a8,8,0,0,0,3.82,2.54c1.73.41,51.35-1.3,53.22-3,.2-.18,1.22.1,1.44-.14,1.84-1.93,4.17-5.28,4-6.71-.13-1.61-37.35-12.59-39.9-15.93,0,0-8.43-7.24-17.54-1.61,0,0-2.11,11-5.93,18.51-.3.59.3,2.56,0,3.11C513.29,1243.2,513.83,1243.64,515.09,1244.94Z"/><path class="cls-13" d="M513.86,1245.06c1.67,1.72,3.85,3.8,4.85,4,1.74.41,52.35-2.41,54.22-4.16.2-.18.42-.4.64-.64-13-.92-44.25-3.32-59.32-5.74-.3.59-.61,1.15-.94,1.7A3.93,3.93,0,0,0,513.86,1245.06Z"/><path class="cls-6" d="M640.06,1221.38s11.88-26.55,13.64-30.26-27.61-15.64-27.61-15.64,2.5,28-1.11,39.76-2.35,15-2.35,15Z"/><path class="cls-9" d="M617.52,1239.25a12.15,12.15,0,0,0,4.08,3.68c1.68.6,49.42,3.67,51.48,2.14.22-.16,2,.45,2.25.24,2-1.71,4.73-4.78,4.77-6.22,0-1.61-35.71-16.68-37.86-20.29,0,0-7.58-8.13-17.26-3.56,0,0-3.32,10.69-8,17.73-.36.56-.74,1.08-1.13,1.59C614.79,1236,616.4,1237.82,617.52,1239.25Z"/><path class="cls-13" d="M615.9,1239.4c1.47,1.89,3.41,4.2,4.38,4.55,1.67.6,52.28,3.46,54.34,1.93.22-.16.46-.36.71-.57-12.86-2.37-43.61-8.25-58.31-12.34-.36.56-.74,1.08-1.13,1.59A4,4,0,0,0,615.9,1239.4Z"/><path class="cls-4" d="M774.7,818.77s16.88,32.14-4.28,59.72c0,0-13.66-20.62-8.57-36.42S768.55,821.72,774.7,818.77Z"/><path class="cls-9" d="M478.55,1190.58c57.84-6,84.34,19.27,84.34,19.27,6.66-11,14.37-43.72,20.84-76.53,5.8-29.34,10.61-58.72,12.81-72.62.84-5.25,1.3-8.3,1.3-8.3l10.07,13.44,11.62,15.49c-.81,32.13-37.36,118.48-37.36,118.48,59.45-14.85,81.94,6,81.94,6,6.61-6.79,16.76-30.26,25.76-54.22,10.67-28.38,19.74-57.45,19.49-60.24-1.47-17.08-68.27-112.47-75.5-131.21a203.83,203.83,0,0,1-9.92-33.74c-.58-.75-1.17-1.47-1.75-2.17-38.46-46-92-10.16-92-10.16s-2.14,98-6.42,136S478.55,1190.58,478.55,1190.58Z"/><path class="cls-6" d="M579.56,752.37s1,9.44-4.75,16.06-2.37,11.86-1.48,12.56,27.11,1.3,27.11,1.3l1.33-3.14,1.78-4.19-3.31-3.72A7.82,7.82,0,0,1,599,768a33.33,33.33,0,0,1-.48-9,.1.1,0,0,0,0,0c.16.12,2.8,2.43,6.72,5.87,3.53,3.09,9.35-10.23,9.09-16.51a84.64,84.64,0,0,0-.67-8.72,7.42,7.42,0,0,0,5.37-.7,1.78,1.78,0,0,0,.89-2.27c-1.15-2.93-4.95-8.06-3.23-14.91a15.76,15.76,0,0,1,.86-2.53c2.37-5.52-19.17-11.58-33.87-9.39-7.7,1.16-13.51,4.56-13,11.5C572,741.52,579.56,752.37,579.56,752.37Z"/><path class="cls-14" d="M478.55,1190.58c57.84-6,84.34,19.27,84.34,19.27,6.66-11,14.37-43.72,20.84-76.53a13.4,13.4,0,0,0-3.79,3.29c-3.89,5.08-5.08,11.72-8.39,17.18a25,25,0,0,1-43.15-.79c-8.09-14.5-.32-32.23,5.86-47.61a236.68,236.68,0,0,0,17-87.09c0-16.38-1.6-33,1.65-49s12.62-32.1,28-37.93c10.88-4.15,22.79-2.56,34-4.86a44.8,44.8,0,0,0,7.33-2.21c-38.46-46-92-10.16-92-10.16s-2.14,98-6.42,136S478.55,1190.58,478.55,1190.58Z"/><path class="cls-4" d="M578.56,949.58s-16.86,28.33-57.64,27.93c0,0,4-19.71,29.92-27.93S578.56,949.58,578.56,949.58Z"/><path class="cls-6" d="M758.72,834.05c.11,3.36.85,6.78,1.28,10.11a10.59,10.59,0,0,0,1.39,4.68c1.3,1.88,3.69,2.69,6,2.85s4.57-.25,6.83-.24c4.94,0,9.65,2,13.9,4.5q1.15.67,2.28,1.41c3.39,2.18,6.63,4.59,10.08,6.65a58.86,58.86,0,0,0,18.1,7.06,1.63,1.63,0,0,0,1.77-2.37,1.45,1.45,0,0,0-.44-.49,45,45,0,0,0-9.73-5.47c.26.1.51.19.78.27,5.56,1.94,11.14,3.87,16.7,5.79,1.18.43,2.78.72,3.51-.31a2,2,0,0,0-.3-2.39,5.83,5.83,0,0,0-2.13-1.39q-7.2-3.3-14.41-6.62l17.47,6.23c1.54.55,3.68.88,4.42-.58a2.3,2.3,0,0,0-.57-2.56,6.82,6.82,0,0,0-2.39-1.4l-16.8-7,14.81,5c1.57.55,3.63,1,4.68-.34a2.84,2.84,0,0,0-.51-3.62,8.36,8.36,0,0,0-3.57-1.75l-24.52-7.47a57,57,0,0,0,9.4,1.19,6,6,0,0,0,2.46-.27,2.09,2.09,0,0,0,1.36-1.9c-.07-1.14-1.3-1.8-2.35-2.24-5.93-2.42-12.32-4.9-18.57-3.51-2.72.59-5.23,1.89-7.93,2.56-5.55,1.39-11.89-1.27-17-3.89-.75-.39-1.47-.72-2.14-1a24.23,24.23,0,0,1-5.25-2.89c-1.64-1.25-3.57-2.49-5.74-2.3S758.66,832.05,758.72,834.05Z"/><path class="cls-14" d="M758.72,834.05c.11,3.36.85,6.78,1.28,10.11a10.59,10.59,0,0,0,1.39,4.68c1.3,1.88,3.69,2.69,6,2.85s4.57-.25,6.83-.24c4.94,0,9.65,2,13.9,4.5q1.15.67,2.28,1.41c-2.06-3.47-5.82-5.66-9.28-7.86-3.76-2.41-7.65-5.48-8.43-9.89a17.6,17.6,0,0,1-.08-4,24.23,24.23,0,0,1-5.25-2.89c-1.64-1.25-3.57-2.49-5.74-2.3S758.66,832.05,758.72,834.05Z"/><path class="cls-6" d="M572.8,1000s6.49,1.46,10-2.49a1.76,1.76,0,0,0-1.81-1.87c-1.94-.14-7.3,2-11.25,0v3.14Z"/><path class="cls-6" d="M571.41,995.25s7,9.66,10.46,10.67,5.72,1.5,6.43,2.71a9.11,9.11,0,0,1,.75,2.87,1.14,1.14,0,0,1-1.27,1.29,24,24,0,0,1-7.75-2.15s-7.66-4.38-8.62-6.54S571.41,995.25,571.41,995.25Z"/><path class="cls-6" d="M577.55,1004s6.5,1.46,10-2.49a1.76,1.76,0,0,0-1.81-1.87c-1.94-.14-7.3,2-11.25,0v3.14Z"/><path class="cls-6" d="M541,952s11.56,18.43,15.12,26.65a14.92,14.92,0,0,1,1,2.68c1.2,5.64,18.57,39.94,20,40.35s1.51-3.92,1.51-5.83c0-.65-1.25-3.82-2.76-7.85-1-2.49-2-5.3-2.93-8-.42-1.27-.81-2.52-1.17-3.71-.09-.32-.18-.65-.28-1v0c-1.09-3.92-1.58-7.12-.59-8.14,3-3.12,7.93,4.61,8.32,5s4.63,1.9,5.53,1.4-7.53-13.45-8.54-14.06-8.23-5.42-10.23-7.43c-1.19-1.17-3.27-11.68-4.78-20.17-1.06-6-1.86-10.95-1.86-10.95Z"/><path class="cls-14" d="M541,952s11.56,18.43,15.12,26.65a9.83,9.83,0,0,0,.29-2.13c.1-3.12-.82-6.15-1.44-9.2s-.92-6.34.36-9.18c1.17-2.61,3.53-4.49,5.81-6.24-1.06-6-1.86-10.95-1.86-10.95Z"/><path class="cls-10" d="M503.44,895.77c2,10.43,20.29,43.17,17.48,81.74,0,0,24.1-30.34,57.64-27.93l-8.87-22.15-4.92-12.25s29.46-4.56,59.17,11.25c0,0-3.52-5.75-3-17.25a59.22,59.22,0,0,1,.88-7.67c1.25-7,2.93-18.65,4.45-30.14,2-15.58,3.75-31,3.59-34.65v-.06c0-1.86,4.27-.2,10.23,3,13.78,7.46,36.63,23.3,36.63,23.3s94,16.33,93.72,15.53-7.5-46.33,4.28-59.72c0,0-10.89-1.46-26-3-17.07-1.73-39.52-3.56-57.59-3.42,0,0-57-27.32-69.62-31.6s-17.13-9.51-21.29-9.51c0,0-.94,5.5-4.14,5s-19-7.62-21.29-7.76a1.55,1.55,0,0,0-1.19.28c-.73.58-1,2.14-5.63,4.81-6.3,3.61-12.19,3.22-18.75,8.84S524.06,817.71,503.44,890C503.44,890,501.44,885.32,503.44,895.77Z"/><path class="cls-14" d="M554.86,888.13c.27,4,9.91,27,9.91,27s29.46-4.56,59.17,11.25c0,0-3.52-5.75-3-17.25-10.87-4.4-24.77-6.7-37.41-8.39-17.4-2.31-14.12.19-15.52-15.33-1.39-15.23,8.18-67.61,8.54-69.56C575.8,818.18,554.58,884.18,554.86,888.13Z"/><path class="cls-14" d="M599,768a33.33,33.33,0,0,1-.48-9l-6-5S594.23,762.76,599,768Z"/><path class="cls-14" d="M571,724.9c2.28-.73,4.94-.17,7.3.73-1.36-1.88-2.41-3.28-2.41-3.28s6.08-10.23,7.81-12.51c14.7-2.19,36.24,3.87,33.87,9.39a15.76,15.76,0,0,0-.86,2.53c-2.39,1.2-5.8,1.9-10.59,1.39-15.17-1.61-19.28-4.22-19.68,2.11-.38,5.9,2.57,12.49,3.7,14.74l.22.42a24.05,24.05,0,0,1-5.2-4.31c-2.76-2.09-5.81-4-6.89-3.22-2.14,1.54,1.41,8,2.81,8.77s-.6,10.71-.6,10.71-5.82-7.3-6-7.63S565.34,726.69,571,724.9Z"/><path class="cls-9" d="M561.55,719.84c-.27,20.35,18.88,32.53,18.88,32.53l-1.4-7.71-.2-1.13c-4.57-1.73-7-11.39-2.69-13.38,3.83-1.8,7.17,3.12,7.84,4.21-.75-1.43-5-10,.06-15.6,5.5-6.16,12.45,2,31.9,1.89s7.61-31.48,7.61-31.48c-4.42,7-14.2,3.35-14.2,3.35,4.42-4,4-12.86,4-12.86a19.47,19.47,0,0,1-1.17,1.75c-2.76,3.84-10.42,12.62-22.65,12.72C573.87,694.27,561.82,699.48,561.55,719.84Z"/><path class="cls-14" d="M503.44,895.77c2,10.43,20.29,43.17,17.48,81.74,0,0,24.1-30.34,57.64-27.93l-8.87-22.15a2.57,2.57,0,0,0-1.58,1.26c-5.62,10.45-35.74,9.45-36.75,1.21S520.31,902,518.31,889.74,529.56,850,533.17,834.5s14.46-42.56,27.91-51.4,12.54-14.39,12.54-14.39c-.73.58-1,2.14-5.63,4.81-6.3,3.61-12.19,3.22-18.75,8.84S524.06,817.71,503.44,890C503.44,890,501.44,885.32,503.44,895.77Z"/><path class="cls-14" d="M628.54,800.47c9.6,11.29,28.81,32.85,42,40.8,18.21,11,23.76,11,39.19,11.77,14.62.77,46.66-5.2,39-37.27,15.07,1.54,26,3,26,3-11.78,13.39-4.56,58.92-4.28,59.72S676.7,863,676.7,863s-22.85-15.84-36.63-23.3c-6-3.2-10.23-4.86-10.23-3,0-1.5-.75-28.91-7.2-43.27a0,0,0,0,1,0,0C622.81,793.5,625.37,795.36,628.54,800.47Z"/><path class="cls-14" d="M573.62,768.71s27,19.14,29.17,13.58-2.55-11-2.55-11-.94,5.5-4.14,5-19-7.62-21.29-7.76A1.55,1.55,0,0,0,573.62,768.71Z"/><path class="cls-14" d="M582.17,1199.81c59.45-14.85,81.94,6,81.94,6,6.61-6.79,16.76-30.26,25.76-54.22a6.38,6.38,0,0,0-.56-.31c-6.58-3.23-14.4.58-20.26,5s-11.9,9.76-19.23,9.81c-4.86,0-9.36-2.3-14-3.75s-10.24-1.85-13.79,1.47c7-12.45,14.07-25,18.9-38.45s7.33-28,5-42.12c-3.26-19.54-9.7-37.19-20.63-53.72S604.9,998.67,599,975.74c-.95,23.79,3.54,47.45-1.17,71a71.38,71.38,0,0,0-1.33,14c.84-5.25,1.3-8.3,1.3-8.3l10.07,13.44,11.62,15.49C618.72,1113.46,582.17,1199.81,582.17,1199.81Z"/><path class="cls-14" d="M561.55,719.84c-.27,20.35,18.88,32.53,18.88,32.53l-1.4-7.71c-.74-.41-1.45-.85-2.14-1.3-7.23-4.87-10.54-14.51-8.79-23.06s8-15.8,15.85-19.69c6.09-3,13.06-4.22,18.79-7.91a25.63,25.63,0,0,0,7.7-7.85,25.3,25.3,0,0,0,1.75-3.44c-2.76,3.84-10.42,12.62-22.65,12.72C573.87,694.27,561.82,699.48,561.55,719.84Z"/><path class="cls-15" d="M3904,1318.48c2.21,72.74-52.17,140.49-114.62,186s-47.75,86.63-47.75,86.63l-2.39.39-22.6,3.72s-36.36-67.76,13.41-142.11c43.3-64.67,48.38-82.53,58.64-134.93,1.54-7.84,3.19-16.45,5.1-26.11,14.7-74.21,65.39-130.64,138.13-154.23C3931.88,1137.8,3891.47,1164.92,3904,1318.48Z"/><path class="cls-16" d="M3682.42,1605.69h0c-2.16,3.22-3.56,4.92-3.56,4.92l-22.15-8.36-1.54-.58s.26-.42.65-1.24a46.81,46.81,0,0,0,4-16c1-11.9-1.23-29.49-14.61-51.28a150.41,150.41,0,0,0-8.83-12.78c-3.23-4.21-6.86-8.55-11-13-52.29-56.88-92.28-134-75.82-204.88,42.44-148.1,8.15-182.64,8.15-182.64,66.68,37.43,105.3,102.73,105.11,178.38-.11,44.44-1.25,67,4.77,94.73.91,4.22,2,8.57,3.26,13.14,4.61,16.5,11.76,35.85,22.8,62.56a156.06,156.06,0,0,1,11.72,48.12A142.93,142.93,0,0,1,3682.42,1605.69Z"/><path class="cls-17" d="M3705.36,1516.77c-10.72,42.88-22.78,88.28-22.94,88.92h0c-2.16,3.22-3.56,4.92-3.56,4.92l-22.15-8.36-.89-1.82a46.81,46.81,0,0,0,4-16c1-11.9-1.23-29.49-14.61-51.28a150.41,150.41,0,0,0-8.83-12.78c-1.17-34.48,6-66,15.82-86.49a267.63,267.63,0,0,0,15.43-40.92c.91,4.22,2,8.57,3.26,13.14,4.61,16.5,11.76,35.85,22.8,62.56A156.06,156.06,0,0,1,3705.36,1516.77Z"/><path class="cls-18" d="M3724.08,1592.48a2.14,2.14,0,0,1-2.14-2.14c0-37.08,15-76.66,46-121,5.64-8.09,11.73-16,17.61-23.71,13.54-17.66,27.54-35.91,36.74-56.91,7.42-17,6.93-34,6.4-52-.28-9.75-.57-19.84.5-29.91,5.08-47.44,19.36-80.12,46.27-106a2.14,2.14,0,0,1,3,3.09c-26.14,25.1-40,57-45,103.33-1.05,9.78-.76,19.72-.48,29.33.51,17.7,1,36-6.77,53.82-9.4,21.48-23.56,39.95-37.25,57.81-5.86,7.64-11.92,15.54-17.51,23.55-30.4,43.61-45.18,82.39-45.18,118.56A2.14,2.14,0,0,1,3724.08,1592.48Z"/><path class="cls-18" d="M3681,1627.11a2.4,2.4,0,0,1-.46,0,2.16,2.16,0,0,1-1.64-2.56c9.58-43.45-9.14-88.61-24.06-118.79-4.19-8.49-8.68-17.06-13-25.36-14.85-28.34-30.2-57.65-36.89-89.44-6.22-29.57-4.73-60.29-3.3-90,.24-4.9.48-10,.69-15,1.42-34.38.84-70.54-12.9-102.06a2.14,2.14,0,0,1,3.93-1.71c14.08,32.31,14.69,69.06,13.25,104-.21,5-.45,10.07-.69,15-1.42,29.44-2.89,59.89,3.22,88.91,6.56,31.22,21.78,60.26,36.49,88.34,4.36,8.32,8.86,16.92,13.08,25.45,10.9,22.07,18.28,41.47,22.56,59.3,5.46,22.75,6.06,43.14,1.84,62.32A2.14,2.14,0,0,1,3681,1627.11Z"/><path class="cls-17" d="M3793.85,1390.25a189.3,189.3,0,0,1-30.28,87c-19.31,29.7-26.13,54.66-28.45,70.38-2.67,18.06-.59,31.33,2,37.2a30.76,30.76,0,0,1,2.09,6.6l-22.6,3.72s-36.36-67.76,13.41-142.11c43.3-64.67,48.38-82.53,58.64-134.93.21,1.16.42,2.28.62,3.39.53,2.83,1,5.51,1.41,8.12.14.92.3,1.93.47,3C3792.88,1343.92,3796.11,1364.86,3793.85,1390.25Z"/><path class="cls-19" d="M3680.73,1583s-42.61-63.93,4.41-156.5c21.31-61-16.16-134.46,3.68-202.06s87.43-63.92,105.8-138.86l11.75-41.15s33.8,103.6-14.69,180c-35.27,52.17-22.78,88.17-19.84,108s14,75.68-24.24,134.46-36,107.27-27.93,125.64S3680.73,1583,3680.73,1583Z"/><path class="cls-18" d="M3703.59,1616.14a2.14,2.14,0,0,1-1.43-.55c-7.6-6.76-10.11-24.38-11.78-36-.26-1.83-.5-3.55-.74-5-1.64-10.23-.83-20.57,0-30.58.29-3.62.58-7.37.75-11,.77-17,1.92-31.39,9-48.09,1.8-4.24,3.7-8.52,5.53-12.67,4.56-10.29,9.28-20.94,12.77-31.69,9.89-30.44,11.74-67.54,5.06-101.77-9.05-46.43-2.19-90.41,19.82-127.2,5.56-9.29,11.91-18,18-26.39,12.08-16.57,23.49-32.21,29-51.67a2.14,2.14,0,0,1,4.12,1.18c-5.77,20.19-17.4,36.13-29.71,53-6.07,8.33-12.36,16.95-17.82,26.07-21.47,35.87-28.14,78.81-19.29,124.18,6.91,35.44,5.07,72.35-5.19,103.92-3.56,11-8.32,21.7-12.93,32.1-1.83,4.13-3.72,8.39-5.5,12.6-6.8,16-7.92,30-8.67,46.61-.17,3.7-.47,7.49-.75,11.15-.77,9.75-1.57,19.84,0,29.56.24,1.5.49,3.25.75,5.09,1.42,9.89,3.48,24.32,8.51,31.33a2.13,2.13,0,0,1,1.89.59,3.32,3.32,0,0,1,1.15,2.8,2.92,2.92,0,0,1-1.48,2.17A2.18,2.18,0,0,1,3703.59,1616.14Zm-1.51-2.16Z"/><path class="cls-20" d="M3754,1566.82h-106.8a21.39,21.39,0,0,0-20.87,26l14.9,66.7a21.39,21.39,0,0,0,20.87,16.73h77a21.38,21.38,0,0,0,20.87-16.73l14.9-66.7A21.39,21.39,0,0,0,3754,1566.82Z"/><path class="cls-17" d="M3759.69,1660.56a21.37,21.37,0,0,1-20.62,15.74h-77a21.4,21.4,0,0,1-20.88-16.72l-14.9-66.71a21.39,21.39,0,0,1,20.88-26h.11a102.22,102.22,0,0,0,101.91,94.27A103.77,103.77,0,0,0,3759.69,1660.56Z"/><path class="cls-15" d="M529.89,1345.34c2.21,72.75-52.17,140.49-114.62,186s-47.75,86.62-47.75,86.62l-2.39.39L342.54,1622s-36.37-67.76,13.41-142.1c43.29-64.67,48.37-82.54,58.63-134.94,1.54-7.84,3.19-16.45,5.1-26.11,14.7-74.21,65.39-130.64,138.13-154.22C557.81,1164.67,517.4,1191.79,529.89,1345.34Z"/><path class="cls-16" d="M308.35,1632.55h0c-2.17,3.22-3.57,4.92-3.57,4.92l-22.14-8.36-1.54-.58s.25-.42.64-1.24a46.85,46.85,0,0,0,4-16c1-11.9-1.24-29.48-14.62-51.28a150.41,150.41,0,0,0-8.83-12.78c-3.22-4.21-6.86-8.55-11-13-52.29-56.87-92.28-134-75.82-204.87,42.44-148.11,8.15-182.64,8.15-182.64,66.69,37.42,105.3,102.72,105.11,178.37-.1,44.44-1.25,67,4.77,94.73.91,4.22,2,8.57,3.27,13.14,4.6,16.5,11.75,35.85,22.79,62.57a156,156,0,0,1,11.72,48.11A142.86,142.86,0,0,1,308.35,1632.55Z"/><path class="cls-17" d="M331.29,1543.63c-10.72,42.89-22.77,88.29-22.94,88.92h0c-2.17,3.22-3.57,4.92-3.57,4.92l-22.14-8.36c-.3-.59-.6-1.2-.9-1.82a46.85,46.85,0,0,0,4-16c1-11.9-1.24-29.48-14.62-51.28a150.41,150.41,0,0,0-8.83-12.78c-1.17-34.47,6-66,15.82-86.49a266.2,266.2,0,0,0,15.43-40.92c.91,4.22,2,8.57,3.27,13.14,4.6,16.5,11.75,35.85,22.79,62.57A156,156,0,0,1,331.29,1543.63Z"/><path class="cls-18" d="M350,1619.34a2.14,2.14,0,0,1-2.15-2.14c0-37.08,15-76.66,46-121,5.64-8.09,11.73-16,17.62-23.71,13.54-17.65,27.54-35.91,36.73-56.91,7.42-17,6.93-34,6.4-52-.28-9.76-.57-19.85.51-29.92,5.08-47.44,19.35-80.12,46.27-106a2.14,2.14,0,0,1,3,3.09c-26.14,25.1-40,57-45,103.33-1.05,9.78-.76,19.72-.48,29.33.51,17.7,1,36-6.76,53.83-9.41,21.47-23.57,39.94-37.26,57.8-5.86,7.64-11.92,15.54-17.5,23.55-30.41,43.61-45.19,82.39-45.19,118.56A2.14,2.14,0,0,1,350,1619.34Z"/><path class="cls-18" d="M307,1654a2.4,2.4,0,0,1-.46,0,2.13,2.13,0,0,1-1.63-2.55c9.57-43.46-9.15-88.61-24.06-118.8-4.2-8.48-8.69-17.06-13-25.36-14.84-28.34-30.2-57.65-36.89-89.44-6.22-29.57-4.73-60.29-3.3-90,.24-4.9.49-10,.69-15,1.42-34.38.84-70.54-12.89-102.06a2.14,2.14,0,1,1,3.92-1.71c14.08,32.31,14.69,69.06,13.25,104-.2,5-.45,10.07-.69,15-1.42,29.44-2.89,59.89,3.22,88.91,6.57,31.22,21.78,60.26,36.49,88.34,4.36,8.32,8.86,16.92,13.08,25.45,10.9,22.07,18.28,41.47,22.56,59.3,5.47,22.76,6.07,43.14,1.84,62.32A2.14,2.14,0,0,1,307,1654Z"/><path class="cls-17" d="M419.78,1417.11a189.19,189.19,0,0,1-30.28,87c-19.31,29.7-26.13,54.66-28.44,70.38-2.68,18.06-.6,31.33,2,37.21a30.52,30.52,0,0,1,2.09,6.59L342.54,1622s-36.37-67.76,13.41-142.1c43.29-64.67,48.37-82.54,58.63-134.94q.32,1.74.63,3.39c.52,2.83,1,5.51,1.41,8.12.13.92.29,1.93.46,3C418.82,1370.78,422,1391.73,419.78,1417.11Z"/><path class="cls-19" d="M306.67,1609.85s-42.62-63.92,4.4-156.5c21.31-61-16.16-134.46,3.68-202s87.43-63.93,105.8-138.87l11.76-41.15s33.79,103.6-14.7,180c-35.27,52.16-22.78,88.16-19.84,108s14,75.68-24.24,134.46-36,107.27-27.92,125.64S306.67,1609.85,306.67,1609.85Z"/><path class="cls-18" d="M329.52,1643a2.15,2.15,0,0,1-1.43-.55c-7.59-6.76-10.11-24.38-11.78-36-.26-1.83-.5-3.55-.74-5-1.64-10.22-.82-20.57,0-30.57.28-3.63.58-7.38.74-11,.77-17,1.93-31.38,9-48.09,1.8-4.24,3.7-8.52,5.54-12.67,4.56-10.29,9.27-20.94,12.77-31.69,9.89-30.44,11.73-67.53,5.06-101.77-9.06-46.42-2.2-90.41,19.82-127.2,5.56-9.29,11.9-18,18-26.39,12.08-16.57,23.49-32.21,29.05-51.66a2.14,2.14,0,1,1,4.12,1.17c-5.77,20.19-17.39,36.13-29.71,53-6.07,8.33-12.36,17-17.82,26.07-21.46,35.87-28.13,78.81-19.29,124.18,6.91,35.44,5.07,72.35-5.19,103.92-3.56,11-8.32,21.71-12.93,32.1-1.83,4.13-3.72,8.4-5.5,12.6-6.8,16-7.91,30-8.67,46.61-.16,3.71-.46,7.49-.75,11.15-.77,9.76-1.57,19.84,0,29.56.25,1.51.49,3.25.76,5.09,1.41,9.9,3.47,24.32,8.5,31.33a2.13,2.13,0,0,1,1.89.59,3.31,3.31,0,0,1,1.15,2.8,2.91,2.91,0,0,1-1.47,2.17A2.14,2.14,0,0,1,329.52,1643Zm-1.51-2.16Z"/><path class="cls-20" d="M379.9,1593.68H273.11a21.39,21.39,0,0,0-20.87,26l14.9,66.71A21.38,21.38,0,0,0,288,1703.16h77a21.38,21.38,0,0,0,20.87-16.72l14.9-66.71A21.39,21.39,0,0,0,379.9,1593.68Z"/><path class="cls-17" d="M385.63,1687.42A21.39,21.39,0,0,1,365,1703.16H288a21.4,21.4,0,0,1-20.88-16.72l-14.89-66.71a21.39,21.39,0,0,1,20.87-26h.12A102.22,102.22,0,0,0,375.14,1688,103.91,103.91,0,0,0,385.63,1687.42Z"/></g></g></g></svg>