<svg xmlns="http://www.w3.org/2000/svg" viewBox="0 0 471.22 456.94"><defs><style>.cls-1{fill:#f0f0f0;}.cls-2{fill:#e0e0e0;}.cls-3{fill:#27debf;}.cls-4{opacity:0.6;}.cls-5{opacity:0.3;}.cls-13,.cls-6{opacity:0.5;}.cls-7{fill:#263238;}.cls-8{opacity:0.7;}.cls-9{fill:#fafafa;}.cls-10,.cls-16,.cls-22{opacity:0.4;}.cls-11,.cls-13,.cls-16{fill:#fff;}.cls-12,.cls-23{opacity:0.15;}.cls-14{fill:#455a64;}.cls-15{fill:#37474f;}.cls-17{opacity:0.2;}.cls-18{opacity:0.1;}.cls-19{fill:#e6e6e6;}.cls-20{fill:#ffa8a7;}.cls-21{fill:#f28f8f;}.cls-23{fill:none;stroke:#000;stroke-miterlimit:10;}</style></defs><g id="Layer_2" data-name="Layer 2"><g id="Floor"><ellipse id="Floor-2" data-name="Floor" class="cls-1" cx="235.61" cy="320.92" rx="235.61" ry="136.03"/></g><g id="Shadow"><path id="Shadow-2" data-name="Shadow" class="cls-2" d="M370.92,368.12c-15.45-8.92-15.45-23.39,0-32.31s40.5-8.92,55.95,0,15.45,23.39,0,32.31S386.37,377,370.92,368.12Z"/><path id="Shadow-3" data-name="Shadow" class="cls-2" d="M56.68,369.35,16,345.89c-2.29-1.32-2.29-3.47,0-4.79L252.43,204.62a9.19,9.19,0,0,1,8.3,0l40.64,23.46c2.29,1.33,2.29,3.47,0,4.79L65,369.35A9.13,9.13,0,0,1,56.68,369.35Z"/></g><g id="Device"><g id="Device-2" data-name="Device"><path class="cls-3" d="M202.76,327.54l34.94-20.21c3.6-2.07,5.4-4.8,5.4-7.52s0-4.86,0-4.86l-36.25-20.44a7.7,7.7,0,0,1-3.48-6V225.41l-61,35.26v43.07a7.7,7.7,0,0,0,3.48,6l30.84,17.77C183.88,331.69,195.56,331.69,202.76,327.54Z"/><g class="cls-4"><path d="M202.76,327.54l34.94-20.21c3.6-2.07,5.4-4.8,5.4-7.52s0-4.86,0-4.86l-36.25-20.44a7.7,7.7,0,0,1-3.48-6V225.41l-61,35.26v43.07a7.7,7.7,0,0,0,3.48,6l30.84,17.77C183.88,331.69,195.56,331.69,202.76,327.54Z"/></g><path class="cls-5" d="M157,311.37v4.84l-11.19-6.44a7.7,7.7,0,0,1-3.47-6V260.67L154,254c.24,3,.51,6,.75,9l-8.16,4.72v33.65a7.66,7.66,0,0,0,3.48,6Z"/><path class="cls-3" d="M146.57,301.32a7.68,7.68,0,0,0,3.48,6l26.62,15.34c7.2,4.16,18.88,4.16,26.09,0l35-20.2c7.21-4.15,7.21-10.9,0-15.05l-26.63-15.35a7.67,7.67,0,0,1-3.48-6V232.4l-61,35.26Z"/><path class="cls-5" d="M146.57,301.32a7.68,7.68,0,0,0,3.48,6l26.62,15.34c7.2,4.16,18.88,4.16,26.09,0l35-20.2c7.21-4.15,7.21-10.9,0-15.05l-26.63-15.35a7.67,7.67,0,0,1-3.48-6V232.4l-61,35.26Z"/><path class="cls-6" d="M218.16,276.17h0l-7.08-4.09a7.67,7.67,0,0,1-3.48-6V232.4l-61,35.26v33.66a7.68,7.68,0,0,0,3.48,6l7,4Z"/><path class="cls-3" d="M243.11,295v4.86c0,2.73-1.81,5.44-5.4,7.53l-35,20.19a26.11,26.11,0,0,1-12.45,3.09v-4.84a26.11,26.11,0,0,0,12.45-3.09l35-20.21C241.3,300.41,243.11,297.68,243.11,295Z"/><path class="cls-6" d="M243.11,295v4.86c0,2.73-1.81,5.44-5.4,7.53l-35,20.19a26.11,26.11,0,0,1-12.45,3.09v-4.84a26.11,26.11,0,0,0,12.45-3.09l35-20.21C241.3,300.41,243.11,297.68,243.11,295Z"/><path class="cls-3" d="M48.59,343.15A9.35,9.35,0,0,0,57,343L293,206.75a9.62,9.62,0,0,0,4.35-7.53V8.31A9.33,9.33,0,0,0,293.28.93a9.3,9.3,0,0,0-8.42.16l-236,136.25a9.6,9.6,0,0,0-4.34,7.53V335.78A9.32,9.32,0,0,0,48.59,343.15Z"/><path class="cls-3" d="M57,343,293,206.74a9.59,9.59,0,0,0,4.35-7.53V8.3c0-2.77-1.95-3.9-4.35-2.51L57,142a9.62,9.62,0,0,0-4.35,7.53V340.48C52.67,343.26,54.62,344.38,57,343Z"/><path class="cls-6" d="M57,343,293,206.74a9.59,9.59,0,0,0,4.35-7.53V8.3c0-2.77-1.95-3.9-4.35-2.51L57,142a9.62,9.62,0,0,0-4.35,7.53V340.48C52.67,343.26,54.62,344.38,57,343Z"/><path class="cls-3" d="M56.38,348a9.42,9.42,0,0,1-7.79-.16,9.35,9.35,0,0,1-4.08-7.39V323l8.15,4.72v17.38C52.66,347.65,54.27,348.8,56.38,348Z"/><path class="cls-6" d="M56.38,348a9.42,9.42,0,0,1-7.79-.16,9.35,9.35,0,0,1-4.08-7.39V323l8.15,4.72v17.38C52.66,347.65,54.27,348.8,56.38,348Z"/><path class="cls-3" d="M52.66,327.74v17.38c0,2.77,1.95,3.89,4.35,2.51L293,211.38a9.62,9.62,0,0,0,4.35-7.53V186.43Z"/><path class="cls-5" d="M52.67,327.71v17.41c0,2.77,1.95,3.89,4.35,2.51L293,211.38a9.62,9.62,0,0,0,4.35-7.53V186.43Z"/><path class="cls-3" d="M60.82,305.93V152.28a5.75,5.75,0,0,1,2.6-4.52L286.59,18.92c1.44-.83,2.61-.16,2.61,1.51V174.08a5.76,5.76,0,0,1-2.61,4.52L63.43,307.44C62,308.27,60.82,307.6,60.82,305.93Z"/><path class="cls-7" d="M60.82,305.93V152.28a5.75,5.75,0,0,1,2.6-4.52L286.59,18.92c1.44-.83,2.61-.16,2.61,1.51V174.08a5.76,5.76,0,0,1-2.61,4.52L63.43,307.44C62,308.27,60.82,307.6,60.82,305.93Z"/><path class="cls-3" d="M175,262.62a9,9,0,0,0-4.08,7.06c0,2.6,1.83,3.66,4.08,2.36a9,9,0,0,0,4.08-7.07C179.09,262.37,177.27,261.32,175,262.62Z"/><path class="cls-8" d="M54,145.27a9.28,9.28,0,0,0-1.29,4.3V327.74L44.51,323V144.87a8.93,8.93,0,0,1,1.28-4.3Z"/><path class="cls-5" d="M297.32,7.59C297,5.35,295.2,4.53,293,5.79L57,142A9,9,0,0,0,54,145.27l-8.16-4.71a9.09,9.09,0,0,1,3.08-3.22l236-136.25a9.32,9.32,0,0,1,8.43-.16A9.41,9.41,0,0,1,297.32,7.59Z"/></g></g><g id="Window"><g id="Window-2" data-name="Window"><g id="Window-3" data-name="Window"><g id="Window-4" data-name="Window"><path class="cls-3" d="M310.05,31.08a2.14,2.14,0,0,0-2.21.17L85.15,159.84a6.71,6.71,0,0,0-3.05,5.28V317.83a3,3,0,0,0,1.29,2.65c.49.27,3.11,1.79,3.89,2.21a1.73,1.73,0,0,0,1.76-.1L311.72,194a6.71,6.71,0,0,0,3-5.27V35.22a2.1,2.1,0,0,0-.94-2C313.28,32.93,310.61,31.42,310.05,31.08Z"/><path class="cls-9" d="M88,322.38c-.85,0-1.55-1.05-1.55-2.34V167.32a6.31,6.31,0,0,1,2.8-4.84L312,33.89a2.38,2.38,0,0,1,1.11-.35c.74,0,1.18.63,1.18,1.68V188.68a6.3,6.3,0,0,1-2.79,4.84L88.79,322.16A1.49,1.49,0,0,1,88,322.38Z"/><path class="cls-2" d="M313.09,34c.59,0,.68.74.68,1.18V188.68a5.71,5.71,0,0,1-2.55,4.41L88.55,321.72a1,1,0,0,1-.51.16c-.56,0-1.05-.86-1.05-1.84V167.32a5.74,5.74,0,0,1,2.55-4.41L312.23,34.33a1.71,1.71,0,0,1,.86-.29m0-1a2.8,2.8,0,0,0-1.36.42L89,162.05A6.73,6.73,0,0,0,86,167.32V320c0,1.54.86,2.84,2.05,2.84a2,2,0,0,0,1-.29L311.72,194a6.71,6.71,0,0,0,3-5.27V35.22c0-1.38-.68-2.18-1.68-2.18Z"/><path class="cls-1" d="M83.38,320.48l3.74,2.12A3.11,3.11,0,0,1,86,320V177.29L82.1,175V317.84A3,3,0,0,0,83.38,320.48Z"/><path class="cls-3" d="M314.77,35.2c0-1.93-1.37-2.71-3-1.74L89,162.05A6.73,6.73,0,0,0,86,167.32v10L314.77,45.2Z"/><g class="cls-10"><path class="cls-11" d="M311.73,33.46,89,162.05a6.22,6.22,0,0,0-2.14,2.26L83,162.07a6,6,0,0,1,2.12-2.23L307.84,31.25a2.16,2.16,0,0,1,2.21-.18c.55.34,3.07,1.78,3.72,2.12A2.2,2.2,0,0,0,311.73,33.46Z"/></g><path class="cls-12" d="M82.1,175v-9.91a6.21,6.21,0,0,1,.93-3l3.88,2.23a6.11,6.11,0,0,0-.91,3v10Z"/></g></g><path class="cls-3" d="M267.81,150.32l-133.37,77a4.91,4.91,0,0,0-2.23,3.85v38.24a4.91,4.91,0,0,0,2.23,3.85l3.89,2.24a4.94,4.94,0,0,0,4.46,0l133.35-77a4.93,4.93,0,0,0,2.23-3.86l0-38.24a4.93,4.93,0,0,0-2.23-3.86l-3.9-2.24A4.91,4.91,0,0,0,267.81,150.32Z"/><path class="cls-13" d="M278.37,156.05c-.15-1.16-1.09-1.58-2.21-.93l-133.37,77a4.45,4.45,0,0,0-1.57,1.67L132.87,229a4.65,4.65,0,0,1,1.56-1.64l133.38-77a4.91,4.91,0,0,1,4.45,0l3.9,2.24A5,5,0,0,1,278.37,156.05Z"/><path class="cls-7" d="M142.41,275.68a5,5,0,0,1-4.07-.18l-3.9-2.24a4.91,4.91,0,0,1-2.23-3.85V231.17a4.66,4.66,0,0,1,.66-2.21l8.35,4.83a4.48,4.48,0,0,0-.66,2.19v38.24C140.56,275.49,141.36,276.08,142.41,275.68Z"/><path class="cls-3" d="M142.79,232.12l133.37-77c1.23-.71,2.23-.13,2.23,1.29l0,38.24a4.93,4.93,0,0,1-2.23,3.86l-133.35,77c-1.23.71-2.23.14-2.23-1.28V236A4.93,4.93,0,0,1,142.79,232.12Z"/><path class="cls-14" d="M232.45,170.73l-98,56.59a4.65,4.65,0,0,0-1.56,1.64l8.35,4.83a4.45,4.45,0,0,1,1.57-1.67l98-56.58Z"/><path class="cls-15" d="M240.79,175.54l-98,56.58a4.93,4.93,0,0,0-2.23,3.86v38.24c0,1.42,1,2,2.23,1.28l98-56.58Z"/><path class="cls-3" d="M165.39,227.47,216,198.27c2.09-1.21,3.79-.35,3.79,1.92A8.16,8.16,0,0,1,216,206.5l-50.57,29.19c-2.09,1.21-3.79.35-3.8-1.92A8.13,8.13,0,0,1,165.39,227.47Z"/><path class="cls-9" d="M175.75,237.13a.11.11,0,0,1,.15,0,.34.34,0,0,1,.06.22v5.7a8.53,8.53,0,0,1-.14,1.63,6.35,6.35,0,0,1-.42,1.44,5.11,5.11,0,0,1-.7,1.18,3.52,3.52,0,0,1-1,.83,1.74,1.74,0,0,1-1,.3,1,1,0,0,1-.7-.37,2.15,2.15,0,0,1-.42-1,7,7,0,0,1-.13-1.48V240a.77.77,0,0,1,.06-.3.36.36,0,0,1,.15-.2l.63-.36a.1.1,0,0,1,.15,0,.37.37,0,0,1,.06.23V245a3.79,3.79,0,0,0,.09.92,1,1,0,0,0,.24.52.43.43,0,0,0,.37.16,1.06,1.06,0,0,0,.48-.15,2,2,0,0,0,.48-.4,2.07,2.07,0,0,0,.38-.59,4,4,0,0,0,.25-.8,5.41,5.41,0,0,0,.09-1V238a.77.77,0,0,1,.06-.3.36.36,0,0,1,.15-.2Z"/><path class="cls-9" d="M179.67,242.52a.4.4,0,0,0,0-.22.22.22,0,0,0-.19-.07,2,2,0,0,0-.37,0l-.57.11a1.19,1.19,0,0,1-.57,0,.75.75,0,0,1-.37-.28,1.38,1.38,0,0,1-.19-.52,4.17,4.17,0,0,1-.05-.74,3.48,3.48,0,0,1,.11-.88,4.17,4.17,0,0,1,.31-.9,3.89,3.89,0,0,1,.51-.8,2.5,2.5,0,0,1,.67-.59,1.73,1.73,0,0,1,.69-.24.84.84,0,0,1,.51.11.85.85,0,0,1,.33.39,1.5,1.5,0,0,1,.13.58.54.54,0,0,1-.06.3.34.34,0,0,1-.15.19l-.6.35q-.12.07-.18,0l-.13-.1a.33.33,0,0,0-.18-.07.82.82,0,0,0-.36.13,1.54,1.54,0,0,0-.41.36.89.89,0,0,0-.18.55.63.63,0,0,0,0,.23.2.2,0,0,0,.17.1,1.36,1.36,0,0,0,.33,0l.56-.11c.47-.09.79,0,1,.26a2.12,2.12,0,0,1,.29,1.23,3.51,3.51,0,0,1-.12.88,4.57,4.57,0,0,1-.34.91,4,4,0,0,1-.55.81,2.83,2.83,0,0,1-.73.61,1.59,1.59,0,0,1-.73.25.89.89,0,0,1-.53-.14,1,1,0,0,1-.34-.44,1.46,1.46,0,0,1-.12-.6.54.54,0,0,1,.06-.3.36.36,0,0,1,.15-.2l.6-.35q.12-.06.18,0l.13.14a.36.36,0,0,0,.21.11.67.67,0,0,0,.39-.14,2.56,2.56,0,0,0,.25-.16,1.67,1.67,0,0,0,.23-.23,1,1,0,0,0,.17-.27A.59.59,0,0,0,179.67,242.52Z"/><path class="cls-9" d="M181.71,239.8a9.9,9.9,0,0,1,.13-1.54,7.57,7.57,0,0,1,.39-1.42,5.42,5.42,0,0,1,.6-1.15,2.57,2.57,0,0,1,.8-.75,1.15,1.15,0,0,1,.79-.17,1,1,0,0,1,.6.42,2.35,2.35,0,0,1,.39.9,5.42,5.42,0,0,1,.14,1.27V238a.66.66,0,0,1-.07.3.43.43,0,0,1-.14.19L182.73,240a1.52,1.52,0,0,0,.07.52.65.65,0,0,0,.2.29.38.38,0,0,0,.29.09,1,1,0,0,0,.34-.11,1.68,1.68,0,0,0,.4-.33,1.6,1.6,0,0,0,.26-.38,2.65,2.65,0,0,1,.14-.23.64.64,0,0,1,.15-.13l.62-.36a.14.14,0,0,1,.16,0,.33.33,0,0,1,0,.24,2.06,2.06,0,0,1-.12.57,4.27,4.27,0,0,1-.34.79,4.59,4.59,0,0,1-.56.82,2.77,2.77,0,0,1-.76.65,1.21,1.21,0,0,1-.8.19.91.91,0,0,1-.6-.42,2.65,2.65,0,0,1-.39-1A7.46,7.46,0,0,1,181.71,239.8Zm1.92-3.19a1.28,1.28,0,0,0-.39.34,2.13,2.13,0,0,0-.27.46,3.16,3.16,0,0,0-.17.52,2.93,2.93,0,0,0-.07.48l1.76-1a2.9,2.9,0,0,0-.06-.41.71.71,0,0,0-.14-.33.38.38,0,0,0-.25-.16A.61.61,0,0,0,183.63,236.61Z"/><path class="cls-9" d="M188.69,233.83a1.59,1.59,0,0,0-.68.75,3.46,3.46,0,0,0-.21,1.33v3.61a.8.8,0,0,1-.06.3.38.38,0,0,1-.15.19l-.59.35a.11.11,0,0,1-.15,0,.37.37,0,0,1-.06-.23v-6.47a.8.8,0,0,1,.06-.3.41.41,0,0,1,.15-.2l.59-.34a.11.11,0,0,1,.15,0,.34.34,0,0,1,.06.22v.32a4.77,4.77,0,0,1,.44-.76,1.82,1.82,0,0,1,.6-.53l.36-.2a.09.09,0,0,1,.14,0,.32.32,0,0,1,.07.23V233a.66.66,0,0,1-.07.3.43.43,0,0,1-.14.19Z"/><path class="cls-9" d="M196.15,233.34a.11.11,0,0,1,.15,0,.37.37,0,0,1,.06.23v1a.8.8,0,0,1-.06.3.38.38,0,0,1-.15.19l-3.42,2a.11.11,0,0,1-.15,0,.34.34,0,0,1-.06-.22v-9a.72.72,0,0,1,.06-.29.36.36,0,0,1,.15-.2l.63-.37a.11.11,0,0,1,.15,0,.35.35,0,0,1,.06.23v7.61Z"/><path class="cls-9" d="M199.22,225.94a1.34,1.34,0,0,1,.77-.21.92.92,0,0,1,.61.3,1.92,1.92,0,0,1,.4.74,4.28,4.28,0,0,1,.18,1.09c0,.09,0,.19,0,.32V229c0,.13,0,.23,0,.32a7.14,7.14,0,0,1-.18,1.3,6.4,6.4,0,0,1-.4,1.19,4.53,4.53,0,0,1-.61,1,2.72,2.72,0,0,1-.77.68,1.25,1.25,0,0,1-.78.21.91.91,0,0,1-.6-.3,1.81,1.81,0,0,1-.4-.73,4.2,4.2,0,0,1-.18-1.09,2.63,2.63,0,0,1,0-.3c0-.13,0-.25,0-.38s0-.26,0-.39a3.12,3.12,0,0,1,0-.33,6.35,6.35,0,0,1,.17-1.3,6.27,6.27,0,0,1,.41-1.2,4.65,4.65,0,0,1,.6-1A2.66,2.66,0,0,1,199.22,225.94Zm.94,2.58a2.07,2.07,0,0,0-.11-.65.67.67,0,0,0-.22-.32.38.38,0,0,0-.29-.06.7.7,0,0,0-.32.12,1.21,1.21,0,0,0-.32.25,1.52,1.52,0,0,0-.29.39,2.19,2.19,0,0,0-.22.58,4.26,4.26,0,0,0-.12.78c0,.08,0,.17,0,.29v.7c0,.11,0,.2,0,.26a2.28,2.28,0,0,0,.12.65.57.57,0,0,0,.22.32.38.38,0,0,0,.29.07.94.94,0,0,0,.32-.13,1.67,1.67,0,0,0,.32-.24,1.88,1.88,0,0,0,.29-.4,2.43,2.43,0,0,0,.22-.58,3.4,3.4,0,0,0,.11-.78,2.1,2.1,0,0,0,0-.27v-.71A2.1,2.1,0,0,0,200.16,228.52Z"/><path class="cls-9" d="M204.24,231.79a1.62,1.62,0,0,0,.34-.28,2.55,2.55,0,0,0,.31-.47,3.21,3.21,0,0,0,.23-.62,3.1,3.1,0,0,0,.09-.76v-.51a2.84,2.84,0,0,1-.17.36,2.25,2.25,0,0,1-.24.42,3.14,3.14,0,0,1-.34.4,1.76,1.76,0,0,1-.43.33.92.92,0,0,1-.71.14,1,1,0,0,1-.54-.41,3,3,0,0,1-.35-.84,5.64,5.64,0,0,1-.14-1.14c0-.14,0-.3,0-.49s0-.34,0-.49a8.45,8.45,0,0,1,.14-1.31,8.6,8.6,0,0,1,.35-1.24,4.84,4.84,0,0,1,.54-1,2.39,2.39,0,0,1,.71-.68,1.15,1.15,0,0,1,.43-.16.76.76,0,0,1,.34,0,.55.55,0,0,1,.24.13.94.94,0,0,1,.17.18V223a.77.77,0,0,1,.06-.3.36.36,0,0,1,.15-.2l.59-.34a.1.1,0,0,1,.15,0,.37.37,0,0,1,.07.23v6.51a6.86,6.86,0,0,1-.53,2.84,3.58,3.58,0,0,1-1.46,1.7,1.68,1.68,0,0,1-.74.24,1.07,1.07,0,0,1-.59-.16,1.27,1.27,0,0,1-.4-.48,2,2,0,0,1-.16-.72.54.54,0,0,1,.06-.3.41.41,0,0,1,.15-.2l.53-.3c.08,0,.14,0,.19,0a1,1,0,0,1,.13.17.49.49,0,0,0,.28.23A.81.81,0,0,0,204.24,231.79Zm-.94-4.85q0,.41,0,.78a1.7,1.7,0,0,0,.32,1.12.49.49,0,0,0,.64,0,1.69,1.69,0,0,0,.65-.77,3.72,3.72,0,0,0,.3-1.33c0-.14,0-.32,0-.54s0-.38,0-.52a1.55,1.55,0,0,0-.3-1,.5.5,0,0,0-.65-.05,1.71,1.71,0,0,0-.64.78A3.73,3.73,0,0,0,203.3,226.94Z"/><path class="cls-9" d="M208.54,218.06a.11.11,0,0,1,.15,0,.34.34,0,0,1,.06.22v1.09a.8.8,0,0,1-.06.3.57.57,0,0,1-.15.2l-.67.38a.1.1,0,0,1-.15,0,.37.37,0,0,1-.07-.23V219a.73.73,0,0,1,.07-.3.36.36,0,0,1,.15-.2Zm.17,9.39a.8.8,0,0,1-.06.3.52.52,0,0,1-.15.19l-.59.35a.11.11,0,0,1-.15,0,.3.3,0,0,1-.07-.23v-6.47a.66.66,0,0,1,.07-.3.34.34,0,0,1,.15-.19l.59-.35a.11.11,0,0,1,.15,0,.35.35,0,0,1,.06.23Z"/><path class="cls-9" d="M214,224.4a.8.8,0,0,1-.06.3.41.41,0,0,1-.15.2l-.6.34a.1.1,0,0,1-.14,0A.29.29,0,0,1,213,225v-3.53a2.59,2.59,0,0,0-.21-1.21c-.15-.25-.37-.29-.68-.11a1.63,1.63,0,0,0-.65.88,4.12,4.12,0,0,0-.24,1.47V226a.73.73,0,0,1-.06.3.36.36,0,0,1-.15.2l-.59.34a.1.1,0,0,1-.15,0,.37.37,0,0,1-.06-.23v-6.47a.8.8,0,0,1,.06-.3.36.36,0,0,1,.15-.2l.59-.34a.11.11,0,0,1,.15,0,.37.37,0,0,1,.06.23v.32a5.15,5.15,0,0,1,.48-.87,2,2,0,0,1,.65-.61,1.09,1.09,0,0,1,.79-.2.84.84,0,0,1,.52.41,2.6,2.6,0,0,1,.28.88,8.68,8.68,0,0,1,.08,1.19Z"/><path class="cls-14" d="M264.44,195.29l-9.72,5.61,1.51-13.62c-1.16-.62-1.91-2.13-1.91-4.3,0-3.87,2.36-8.36,5.26-10s5.25.11,5.25,4a13.22,13.22,0,0,1-1.9,6.49Z"/><polygon class="cls-15" points="264.44 195.29 255.89 190.36 254.72 200.9 264.44 195.29"/><path class="cls-15" d="M259.58,172.94a11.45,11.45,0,0,0-4.48,5.95l7.83,4.52h0a13.22,13.22,0,0,0,1.9-6.49C264.83,173.05,262.48,171.27,259.58,172.94Z"/><path class="cls-3" d="M212.36,127.6c-3.33-1.93-7.92-1.65-13,1.27C189.23,134.73,181,149,181,160.67c0,5.88,2.07,10,5.41,11.91.87.49,5.59,3.24,6.47,3.75,3.32,1.92,7.91,1.64,13-1.28,10.14-5.86,18.36-20.1,18.36-31.8,0-5.85-2.06-10-5.38-11.88"/><path class="cls-3" d="M205.88,132.65c-10.14,5.85-18.36,20.09-18.36,31.8s8.22,16.45,18.36,10.6,18.37-20.1,18.36-31.8S216,126.79,205.88,132.65Z"/><path class="cls-3" d="M216,158.62V160a29.45,29.45,0,0,1-10.13,10.62c-3.95,2.28-7.52,2.52-10.14,1.07v-2.77A18,18,0,0,1,204,154.57l2.67-1.53c2.36-1.37,4.66-1.54,6.46-.5S216,155.81,216,158.62Z"/><path class="cls-16" d="M212.36,127.6l6.5,3.77c-3.32-1.93-7.91-1.65-13,1.28-6.64,3.83-12.46,11.26-15.68,19.22l-6.51-3.77c3.23-8,9-15.39,15.68-19.23C204.45,126,209,125.67,212.36,127.6Z"/><path class="cls-17" d="M192.66,176.18l-6.23-3.61c-3.34-1.9-5.42-6-5.42-11.9l6.51,3.78C187.52,170.16,189.48,174.21,192.66,176.18Z"/><path class="cls-18" d="M183.69,148.1l6.51,3.77a34.12,34.12,0,0,0-2.68,12.58h0L181,160.67A34.23,34.23,0,0,1,183.69,148.1Z"/><path class="cls-11" d="M203.57,152.41a3.45,3.45,0,0,1-1.76-.46,4.32,4.32,0,0,1-1.92-4,11.44,11.44,0,0,1,5.24-9.08h0a3.93,3.93,0,0,1,6.33,3.65,11.43,11.43,0,0,1-5.25,9.08A5.29,5.29,0,0,1,203.57,152.41Z"/><path class="cls-11" d="M213.13,152.54c-1.8-1-4.1-.87-6.46.5L204,154.57a18,18,0,0,0-8.26,14.31v2.77c2.62,1.45,6.19,1.21,10.14-1.07A29.45,29.45,0,0,0,216,160v-1.34C216,155.81,215,153.6,213.13,152.54Z"/></g></g><g id="Plants"><g id="Plants-2" data-name="Plants"><path class="cls-3" d="M418.71,325.54s1.33-11.68,7.14-20.74,13.79-14.72,21.24-15.31,13.47,6.26,5.5,11-22.13,9.5-28.65,27.1Z"/><path class="cls-18" d="M418.71,325.54s1.33-11.68,7.14-20.74,13.79-14.72,21.24-15.31,13.47,6.26,5.5,11-22.13,9.5-28.65,27.1Z"/><path class="cls-11" d="M420.9,322.51l-.08,0a.39.39,0,0,1-.22-.51c7.86-19.36,22.82-27.44,29.64-29a.4.4,0,0,1,.48.3.4.4,0,0,1-.3.47c-6.68,1.54-21.35,9.48-29.08,28.54A.41.41,0,0,1,420.9,322.51Z"/><path class="cls-3" d="M460.68,322.74c-.67,1.52-2.33,2.31-3.87,2.93s-3.22,1.29-4.06,2.73c-1.68,2.9,1.08,7-.72,9.81a5.21,5.21,0,0,1-3.55,2.06,34.26,34.26,0,0,1-3.49.31,12.82,12.82,0,0,1-1.66-.13,7.64,7.64,0,0,0-4.81.51c-2.31,1.3-3,4.22-4.42,6.46a11,11,0,0,1-7.77,4.88c-1,.14-3,.32-4-.27a.83.83,0,0,1-.22-.14h0c-.14-.17-.33-.38-.41-.49a.43.43,0,0,1,0-.07c-.41-1.5.26-3.07.29-4.63v-.28c-.07-1.81-.12-3.6-.16-5.41-.08-3.32-.12-6.64-.1-10,0-2.16-.24-4.52.68-6.55,1-2.24,3.52-2.29,4.47-4.48.38-.87.58-1.81.95-2.69a7.72,7.72,0,0,1,6.58-4.6c4.39-.22,8.33,3.33,12.71,3,1.13-.09,2.24-.44,3.36-.64,3.55-.67,7.66.35,9.66,3.35A4.6,4.6,0,0,1,460.68,322.74Z"/><path class="cls-11" d="M421.26,344.41h0A.37.37,0,0,1,421,344c6.06-22.75,30-26,35.63-25.63a.38.38,0,0,1-.05.75c-5.49-.4-28.93,2.82-34.86,25.07A.37.37,0,0,1,421.26,344.41Z"/><path class="cls-11" d="M447.89,332.89a.44.44,0,0,1-.2-.11,19.93,19.93,0,0,0-16.31-4.59.38.38,0,0,1-.42-.32.37.37,0,0,1,.31-.42,20.69,20.69,0,0,1,17,4.8.37.37,0,0,1,0,.53A.38.38,0,0,1,447.89,332.89Z"/></g></g><g id="Clouds"><g id="Clouds-2" data-name="Clouds"><path class="cls-19" d="M363.68,50.9l3.18,1.22v-7c0-5.56,4.43-6.89,9.24-4.11h0c4.82,2.78,8.72,9.54,8.72,15.09v1a4.69,4.69,0,0,1,4,.63h0a13.84,13.84,0,0,1,6.27,10.86v.46l4.44,2.56a9.14,9.14,0,0,1,4.13,7.16c0,2.63-1.85,3.7-4.13,2.38L363.68,60.44a9.11,9.11,0,0,1-4.13-7.16C359.55,50.65,361.39,49.58,363.68,50.9Z"/><path class="cls-19" d="M406.27,45.36,412,48.69a6.78,6.78,0,0,1-.05-.77V46.25c0-3,2.09-4.18,4.66-2.69a9.13,9.13,0,0,1,2.78,2.67c.42-3.74,3.36-5.13,6.92-3.07a15.42,15.42,0,0,1,7,12.08v2.5a6.53,6.53,0,0,1-.59,2.9l4.79,2.77a5.71,5.71,0,0,1,2.59,4.48c0,1.65-1.16,2.32-2.59,1.49l-31.26-18a5.71,5.71,0,0,1-2.59-4.48C403.68,45.2,404.84,44.53,406.27,45.36Z"/></g></g><g id="Character"><g id="Character-2" data-name="Character"><path class="cls-20" d="M383.93,197.12c-4.2,7.11-8.24,13.27-11.08,16.23-5.39,2.51-18.05,6.36-23,7a3.65,3.65,0,0,1-2.48-.58c-1.95-1.28-3.46-1.49-5.51-2.2-1.61-.55-2.29-1.32-2.59-1a1.83,1.83,0,0,0,.17,2.55A13.52,13.52,0,0,0,342,221a15,15,0,0,1-6.7.12C331,220,329,222,331.87,226.7c1,1.67,5.12,4.33,13.41,3.61a71,71,0,0,0,8.8-1c7.94-1.69,16.77-3.34,22.21-5a14.1,14.1,0,0,0,5.27-3.65c9.13-10.42,12.16-17.83,16.16-24.58l-.34-11C390.9,184.87,387.44,191.18,383.93,197.12Z"/><path class="cls-14" d="M398.49,184.87a10.41,10.41,0,0,0-9.9,4.23c-4.44,5.69-12.3,19.35-12.3,19.35s2.57,6.85,9.51,8L397,201.37S402.23,191,398.49,184.87Z"/><rect class="cls-20" x="415.33" y="338.43" width="7.27" height="12.96"/><polygon class="cls-20" points="397.4 337.74 390.14 338 389.77 324.28 397.4 324.02 397.4 337.74"/><path class="cls-15" d="M423.62,226.24c0,7.23-1.06,65.4-1.06,65.4.17,2.08,2,5.91,1.63,13.9-.55,10.85-1.28,39.37-1.28,39.37a9.24,9.24,0,0,1-8.09.16s-5.9-40-7.2-50.71c-1.13-9.39-4-40.52-4-40.52l-3.94,36.74a44.74,44.74,0,0,1,.9,12c-.34,5-2.68,30.88-2.68,30.88a9.58,9.58,0,0,1-8.39.67s-4.14-39-4.22-43.58c-.1-5.2,2.42-64.42,2.42-64.42Z"/><path class="cls-7" d="M415.33,347.65v-1.08c-.7.31-2.31,6.73-5.19,9.47-2.3,2.18-5.42,4.7-6.22,7.12s4.35,3.92,6.5,3.53c2.49-.46,6.8-2.29,7.88-4s1.59-4.19,2.47-5.43,2.91-2.62,3.38-4.06c.27-.78,0-2.51-.41-4s-.7-2.81-1.14-2.68v.82a5.59,5.59,0,0,1-3.64,1.28C417.9,348.71,415.32,348.49,415.33,347.65Z"/><path class="cls-7" d="M390.06,335.66c-.38,0-.69.57-1.52,1.51a15.8,15.8,0,0,1-4.27,3.2c-2.72,1.42-8,3.6-10.41,4.73-1.5.7-1.42,2.58.12,3.65s5.28,1.85,9.76.8c2.45-.57,5.62-2.92,7.64-2.79s5.77.1,7.26-1,.89-3.34.47-5.3c-.46-2.14-1-5.47-1.71-5.32v.74c-.87,1.37-5.38,1.94-7.3.92Z"/><path class="cls-7" d="M403.58,253.84a26.62,26.62,0,0,1-10.13-6s2,3.8,7.76,7.35L400,288Z"/><path class="cls-3" d="M419.55,186s6,1.38,5.57,12.22l-1.25,17.26,0,25.9c-5.34,6-29,5.61-37.15-.49,0,0,.92-30.65,1.47-42.44.39-8.39,2.32-12.61,10.56-13.53l10.13.44Z"/><path class="cls-7" d="M411.92,163.43A11.06,11.06,0,0,1,401.1,174.7c-6,0-9.52-5.19-10.82-11.27-2.39-11.13,4.84-11.27,10.82-11.27A11.05,11.05,0,0,1,411.92,163.43Z"/><path class="cls-7" d="M417.44,168s-1.66,8.12-2.33,9.45a3.53,3.53,0,0,1-2,1.71l.12-5.71Z"/><path class="cls-7" d="M415.35,156.35s1.19-.29,2.46,1.68c1.08,1.69,1.33,5.5-.37,10l-3.13.37Z"/><path class="cls-7" d="M416.5,158l3.84.07a1.81,1.81,0,0,0-1.75-2A2.13,2.13,0,0,0,416.5,158Z"/><path class="cls-7" d="M417,157.09l2.84-2.73a1.83,1.83,0,0,0-2.69-.11A2.1,2.1,0,0,0,417,157.09Z"/><path class="cls-20" d="M413.37,168.36c.63.39,1.52-.86,2.3-1.7s3.2-1.64,4.46,1.12-.89,5.49-2.69,6.39c-3.23,1.6-4.25-.73-4.25-.73l-.26,12.86c-4.55,7-14.85,6.78-11.14-.34v-3.91a21,21,0,0,1-4.62.25c-2.52-.41-4.1-2.48-4.86-5.32-1.23-4.56-1.7-8.24-.66-17.2,1.14-9.83,12.12-9.93,18-6.05S413.37,168.36,413.37,168.36Z"/><path class="cls-7" d="M399.69,158.24c2.62-.26,5.21-.79,7.84-1a5.38,5.38,0,0,1,1.7.08c2,.55,1.76,2.89,2.08,4.52.55,2.82,1,7.59,2.06,7.61.32,0,1.52-2.06,2.3-2.8a4.16,4.16,0,0,0,.7-2.15c.2-1.17.3-2.35.39-3.53.08-1,.18-2,.18-3a14.12,14.12,0,0,0-.27-3.37,5.89,5.89,0,0,0-1.4-2.52l-.2-.22a13.27,13.27,0,0,0-4.69-3.16,28.32,28.32,0,0,0-7.94-1.72,80.82,80.82,0,0,1-8.09-1,.94.94,0,0,0-.47,0,.74.74,0,0,0-.38.6,3.34,3.34,0,0,0,1.35,3.3c-1.81.14-3.89-.8-5.63-1.27a1.14,1.14,0,0,0-.89,0,.88.88,0,0,0-.35.51,3.22,3.22,0,0,0-.05,1.45,8.28,8.28,0,0,0,1.56,4,9.87,9.87,0,0,0,5.4,3.54A15.76,15.76,0,0,0,399.69,158.24Z"/><path class="cls-21" d="M401.8,182.05s5.62-1.18,7.58-2.27a6.62,6.62,0,0,0,2.72-2.8,9.35,9.35,0,0,1-1.55,3.3c-1.43,1.92-8.75,3.33-8.75,3.33Z"/><path class="cls-7" d="M403.15,166.9a1.16,1.16,0,0,0,1.12,1.21,1.22,1.22,0,1,0-1.12-1.21Z"/><path class="cls-7" d="M405,162l2.4,1.39a1.53,1.53,0,0,0-.56-2A1.31,1.31,0,0,0,405,162Z"/><path class="cls-21" d="M402.3,175l-2.57,1a1.34,1.34,0,0,0,1.75.88A1.5,1.5,0,0,0,402.3,175Z"/><path class="cls-7" d="M392.81,163.07l2.2-1.76a1.3,1.3,0,0,0-1.91-.3A1.56,1.56,0,0,0,392.81,163.07Z"/><path class="cls-7" d="M393.78,166.56a1.13,1.13,0,1,0,1.13-1.22A1.17,1.17,0,0,0,393.78,166.56Z"/><polygon class="cls-21" points="399.81 165.62 399.68 172.74 395.64 171.81 399.81 165.62"/><polyline class="cls-3" points="303.87 225.17 310.14 221.55 312.62 218.54 306.36 222.16 303.87 225.17"/><polyline class="cls-22" points="303.87 225.17 310.14 221.55 312.62 218.54 306.36 222.16 303.87 225.17"/><polyline class="cls-3" points="320.92 235.01 327.19 231.39 332.42 226.76 326.16 230.38 320.92 235.01"/><polyline class="cls-22" points="320.92 235.01 327.19 231.39 332.42 226.76 326.16 230.38 320.92 235.01"/><path class="cls-3" d="M374.18,247.51a13.22,13.22,0,0,1,2.59,6.81A13.4,13.4,0,0,1,374.18,247.51Zm14.57.19c-2.11-14.36-9.82-28.55-19-33.86-4.41-2.55-8.49-2.64-11.76-.73l-5.9,3.41a2.59,2.59,0,0,0-.33.19c-.26.15-.52.31-.76.48a10.24,10.24,0,0,0-1.36,1.12,1.84,1.84,0,0,1-.2.19,7.9,7.9,0,0,0-.54.6,9.58,9.58,0,0,0-.63.77,14.19,14.19,0,0,0-1.15,1.77c-.17.3-.35.63-.51,1l-51.52-29.74-6.26,3.61v4l.53.31.5.28v.85l-1,.59v2.33l7.57,16,7.48,4.33,2.49-3,6.6,4,3.79,6.49,4.18,2.41,5.23-4.64,6.42,3.72,2.16,8.9,10.77,6.21a58.69,58.69,0,0,0,2,6.69c.07.23.16.45.25.7,3.58,9.41,9.27,17.46,15.69,21.17a17,17,0,0,0,2.41,1.16,13.35,13.35,0,0,0,1.35.45,10.35,10.35,0,0,0,1.2.27,10.65,10.65,0,0,0,3.82,0l.52-.13a4.68,4.68,0,0,0,.73-.21l.56-.22a4.17,4.17,0,0,0,.57-.26l.54-.28.26-.16a.42.42,0,0,0,.13-.07c1.43-.82,4.95-2.86,5.91-3.4,4.76-2.76,7.84-9.74,7.84-19.61A51.44,51.44,0,0,0,388.75,247.7Z"/><path class="cls-3" d="M372.35,259.61c-2.48-1.42-4.48-5.66-4.48-9.47s2-5.73,4.48-4.31,4.47,5.67,4.47,9.48S374.82,261,372.35,259.61Zm10.14-8.31c-2.11-14.34-9.82-28.53-19-33.84-4.26-2.46-8.2-2.64-11.4-.94a2.59,2.59,0,0,0-.33.19c-.26.15-.52.31-.76.48a10.24,10.24,0,0,0-1.36,1.12,1.84,1.84,0,0,1-.2.19,7.9,7.9,0,0,0-.54.6,9.58,9.58,0,0,0-.63.77,14.19,14.19,0,0,0-1.15,1.77c-.17.3-.35.63-.51,1a24.46,24.46,0,0,0-2,6.09l-55.79-32.22v4l.53.31.5.28v.85l-1,.59v2.33l7.57,16,7.48,4.33,2.49-3,6.6,4,3.79,6.49,4.18,2.41,5.23-4.64,6.42,3.72,2.16,8.9,10.77,6.21a58.69,58.69,0,0,0,2,6.69c.07.23.16.45.25.7,3.58,9.41,9.27,17.46,15.69,21.17a17,17,0,0,0,2.41,1.16,13.35,13.35,0,0,0,1.35.45,10.35,10.35,0,0,0,1.2.27,10.65,10.65,0,0,0,3.82,0l.52-.13a4.68,4.68,0,0,0,.73-.21l.56-.22a4.17,4.17,0,0,0,.57-.26l.54-.28.26-.16a.42.42,0,0,0,.13-.07c4.56-2.88,7.49-9.75,7.49-19.39A53.11,53.11,0,0,0,382.49,251.3Z"/><path class="cls-22" d="M376.82,255.3c0,3.81-2,5.74-4.47,4.31s-4.48-5.66-4.48-9.47,2-5.73,4.48-4.3a6.34,6.34,0,0,1,1.83,1.67,13.38,13.38,0,0,0,2.59,6.82A8.09,8.09,0,0,1,376.82,255.3Z"/><path class="cls-16" d="M389.32,255.29c0,9.87-3.08,16.85-7.84,19.61-1,.54-4.48,2.58-5.91,3.4,4.56-2.88,7.49-9.75,7.49-19.39a53.11,53.11,0,0,0-.57-7.61c-2.11-14.34-9.82-28.53-19-33.84-4.26-2.46-8.2-2.64-11.4-.94l5.9-3.41c3.27-1.91,7.35-1.82,11.76.73,9.19,5.31,16.9,19.5,19,33.86A51.44,51.44,0,0,1,389.32,255.29Z"/><path class="cls-3" d="M383.06,258.91c0,9.64-2.93,16.51-7.49,19.39,1.43-.82,4.95-2.86,5.91-3.4,4.76-2.76,7.84-9.74,7.84-19.61,0-.36,0-.73,0-1.09L383,257.81C383.05,258.18,383.06,258.55,383.06,258.91Z"/><path class="cls-18" d="M383.06,258.91c0,9.64-2.93,16.51-7.49,19.39,1.43-.82,4.95-2.86,5.91-3.4,4.76-2.76,7.84-9.74,7.84-19.61,0-.36,0-.73,0-1.09L383,257.81C383.05,258.18,383.06,258.55,383.06,258.91Z"/><polygon class="cls-12" points="344.84 232.81 344.84 234.85 288.82 202.5 289.85 201.91 289.85 201.06 344.84 232.81"/><polygon class="cls-12" points="344.84 233.65 344.84 234.85 288.82 202.5 289.85 201.91 289.85 201.9 344.84 233.65"/><ellipse class="cls-23" cx="363.48" cy="247.6" rx="14.79" ry="27.68" transform="translate(-56.65 117.56) rotate(-17.06)"/><path class="cls-16" d="M346.6,222.61a24.46,24.46,0,0,0-2,6.09l-55.79-32.22,6.26-3.61Z"/><path class="cls-20" d="M419.07,225.74c2.92-5.53,6.26-18,7.92-24.22,2.36-8.9-1.46-14.5-5.79-14.73-2.72.42-11.65,32.89-11.65,32.89-1,.79-14.57,7.68-18.93,9.41a3.47,3.47,0,0,1-2.42,0c-2.09-.77-3.52-.62-5.57-.83-1.61-.16-2.42-.73-2.62-.39a1.82,1.82,0,0,0,.78,2.37,13.14,13.14,0,0,0,2.8,1.22,16.91,16.91,0,0,1-5.41.74c-4.2-.1-5.71,1.73-2.45,6,2,2.66,5.31,3.5,12.7.95,2.12-.74,5-2.17,7.69-3.14,5.54-2,7-2.23,11.22-3.67C413.49,230.26,417.77,228.2,419.07,225.74Z"/><path class="cls-14" d="M419.55,186c2.55.35,5,.93,6.51,3s2.72,5,1.24,13a123.91,123.91,0,0,1-4.54,16.47s-5.93,2.54-12.25-3.9l4.34-16.78S415.59,186.79,419.55,186Z"/></g></g></g></svg>