<svg xmlns="http://www.w3.org/2000/svg" viewBox="0 0 417.64 421.85"><defs><style>.cls-1{fill:#f5f5f5;}.cls-2{fill:#e0e0e0;}.cls-15,.cls-3{fill:#ba68c8;}.cls-10,.cls-14,.cls-4{opacity:0.5;}.cls-14,.cls-18,.cls-19,.cls-5{fill:#fff;}.cls-19,.cls-6{opacity:0.2;}.cls-7{fill:#37474f;}.cls-8{fill:#455a64;}.cls-9{fill:#263238;}.cls-11{fill:#e6e6e6;}.cls-12{fill:#fafafa;}.cls-13{fill:#ebebeb;}.cls-15{font-size:11.61px;font-family:Roboto-Black, Roboto Black;font-weight:800;letter-spacing:0.2em;}.cls-16{opacity:0.3;}.cls-17{fill:#ffa8a7;}.cls-18{opacity:0.4;}.cls-20{fill:#f28f8f;}</style></defs><g id="Layer_2" data-name="Layer 2"><g id="Floor"><ellipse class="cls-1" cx="208.82" cy="301.28" rx="208.82" ry="120.56"/></g><g id="Shadows"><ellipse class="cls-2" cx="241.59" cy="359.64" rx="45.16" ry="26.07"/><path class="cls-2" d="M218.12,271.36,97.34,341.11c-3.4,2-9.34,1.72-13.26-.55L41.19,315.8c-3.92-2.26-4.35-5.69-.95-7.65L161,238.4c3.4-2,9.33-1.72,13.26.55l42.88,24.76C221.1,266,221.52,269.4,218.12,271.36Z"/></g><g id="Plants"><path class="cls-3" d="M348.19,295.72l9.51,5.52s-4.8-15.32-2.13-30.74a29.31,29.31,0,0,1,3.87-10.26c.74-1.56,6.48-11.17,1.43-15.61S344,249,344.5,272.76A92.11,92.11,0,0,0,348.19,295.72Z"/><path class="cls-4" d="M348.19,295.72l9.51,5.52s-4.8-15.32-2.13-30.74a29.31,29.31,0,0,1,3.87-10.26c.74-1.56,6.48-11.17,1.43-15.61S344,249,344.5,272.76A92.11,92.11,0,0,0,348.19,295.72Z"/><path class="cls-5" d="M352.61,298.72a.42.42,0,0,1-.4-.29c0-.1-3.64-10.09-3.45-26.11s8.66-24.72,8.75-24.8a.43.43,0,1,1,.61.61c-.09.08-8.31,8.45-8.5,24.2S353,298,353,298.14a.43.43,0,0,1-.26.55Z"/><path class="cls-3" d="M355.57,300l15.72,9.25s7.19-1.06,6.65-7.84-3.47-8.37.17-11.35,4.58-3.17,4.41-6.09-2.14-4.19-3.06-5.34-3.5-3.59-1.69-7.1,4.27-6.92.62-8.54c-2.17-1-5.83.25-8.26,2.82s-4.42,4.43-6.72,5-7.09.64-6.93,4.6,1.19,5.33.23,7.08C354.9,285.86,347.17,287.65,355.57,300Z"/><path class="cls-6" d="M355.57,300l15.72,9.25s7.19-1.06,6.65-7.84-3.47-8.37.17-11.35,4.58-3.17,4.41-6.09-2.14-4.19-3.06-5.34-3.5-3.59-1.69-7.1,4.27-6.92.62-8.54c-2.17-1-5.83.25-8.26,2.82s-4.42,4.43-6.72,5-7.09.64-6.93,4.6,1.19,5.33.23,7.08C354.9,285.86,347.17,287.65,355.57,300Z"/><path class="cls-5" d="M362,304.23a.43.43,0,0,1-.43-.4c0-.23-1.73-23.67,14.55-39.06a.43.43,0,0,1,.61,0,.42.42,0,0,1,0,.61c-16,15.1-14.3,38.13-14.28,38.36a.44.44,0,0,1-.4.47Z"/><path class="cls-5" d="M364.79,284.14a.42.42,0,0,1-.43-.4,13.38,13.38,0,0,0-4.78-9.34.42.42,0,0,1-.1-.6.43.43,0,0,1,.6-.1,14,14,0,0,1,5.14,10,.43.43,0,0,1-.4.46Z"/><path class="cls-5" d="M363.63,288.14a.39.39,0,0,1-.29-.11.43.43,0,0,1,0-.61c.17-.19,4.27-4.62,13.75-3.31a.43.43,0,1,1-.12.85c-9-1.23-12.95,3-13,3A.43.43,0,0,1,363.63,288.14Z"/><path class="cls-3" d="M60,282.25l-4.7,9.95s-4.74-15.34-15.69-26.52a29.29,29.29,0,0,0-9-6.26c-1.49-.85-11.67-5.52-10-12s16.4-6,29.44,13.87A92.37,92.37,0,0,1,60,282.25Z"/><path class="cls-4" d="M60,282.25l-4.7,9.95s-4.74-15.34-15.69-26.52a29.29,29.29,0,0,0-9-6.26c-1.49-.85-11.67-5.52-10-12s16.4-6,29.44,13.87A92.37,92.37,0,0,1,60,282.25Z"/><path class="cls-5" d="M57.76,287.31a.44.44,0,0,1-.42-.32c0-.1-2.7-10.23-11.84-23.18S24.89,248.73,24.77,248.7a.43.43,0,0,1-.35-.5.45.45,0,0,1,.51-.35c.12,0,12,2.3,21.27,15.46s11.95,23.36,12,23.46a.44.44,0,0,1-.31.53Z"/><path class="cls-3" d="M56.32,290l-7.7,16.53s-6.53,3.21-9.92-2.68-1.89-8.86-6.58-9.25-5.57,0-7.09-2.51-.61-4.67-.51-6.14.85-4.94-2.64-6.81-7.44-3.27-5.35-6.67c1.24-2,4.94-3.11,8.4-2.36s6.15,1.13,8.38.32,6.21-3.49,8.32-.14,2,5.06,3.83,6C48.83,278,56.2,275,56.32,290Z"/><path class="cls-6" d="M56.32,290l-7.7,16.53s-6.53,3.21-9.92-2.68-1.89-8.86-6.58-9.25-5.57,0-7.09-2.51-.61-4.67-.51-6.14.85-4.94-2.64-6.81-7.44-3.27-5.35-6.67c1.24-2,4.94-3.11,8.4-2.36s6.15,1.13,8.38.32,6.21-3.49,8.32-.14,2,5.06,3.83,6C48.83,278,56.2,275,56.32,290Z"/><path class="cls-5" d="M53.19,297.16a.44.44,0,0,1-.38-.22c-.11-.2-11.81-20.11-33.53-23.48a.43.43,0,0,1-.36-.5.42.42,0,0,1,.49-.36c22.14,3.44,34,23.71,34.15,23.91a.43.43,0,0,1-.16.59A.42.42,0,0,1,53.19,297.16Z"/><path class="cls-5" d="M39.47,282.22a.44.44,0,0,1-.37-.21,14,14,0,0,1-1.44-11.14.43.43,0,0,1,.55-.26.43.43,0,0,1,.26.55,13.42,13.42,0,0,0,1.37,10.41.43.43,0,0,1-.15.59A.46.46,0,0,1,39.47,282.22Z"/><path class="cls-5" d="M29.88,289.82a.47.47,0,0,1-.32-.14.44.44,0,0,1,0-.61c7.07-6.45,13-5.13,13.2-5.07a.43.43,0,0,1-.2.84c-.05,0-5.71-1.25-12.42,4.87A.44.44,0,0,1,29.88,289.82Z"/></g><g id="Device"><polygon class="cls-7" points="178.4 10.7 178.4 10.7 178.4 10.7 178.4 10.7"/><path class="cls-7" d="M56.43,80.82a16.6,16.6,0,0,1,8.3-14.38L170.25,5.52a5.43,5.43,0,0,1,7.89,3.06,9.4,9.4,0,0,0-4.34-6l-.38-.22A17,17,0,0,0,164.74,0h0A5.4,5.4,0,0,0,162,.74L56.44,61.66A16.6,16.6,0,0,0,48.14,76V304.22a5.43,5.43,0,0,0,8.15,4.71l.14-.08Z"/><path class="cls-8" d="M170.1,252.79,64.58,313.71a5.43,5.43,0,0,1-8.15-4.7V80.82a16.6,16.6,0,0,1,8.3-14.38L170.25,5.52a5.44,5.44,0,0,1,8.15,4.71V238.42A16.6,16.6,0,0,1,170.1,252.79Z"/><path class="cls-9" d="M56.43,309V80.82a16.58,16.58,0,0,1,1.64-7.19l-8.16-5A16.61,16.61,0,0,0,48.14,76v230.1a5.22,5.22,0,0,0,2.56,4.49l4.2,2.5a9.4,9.4,0,0,0,4.82,1.33H61.8A5.44,5.44,0,0,1,56.43,309Z"/><path class="cls-7" d="M166.47,27.46v191.8A14.67,14.67,0,0,1,159.14,232L66,285.74a4.64,4.64,0,0,1-2.31.64,4.8,4.8,0,0,0,6.81,2.25l93.18-53.8A14.65,14.65,0,0,0,171,222.14V32.24A4.78,4.78,0,0,0,166.47,27.46Z"/><path class="cls-3" d="M63.65,286.38a4.64,4.64,0,0,0,2.31-.64L159.14,232a14.67,14.67,0,0,0,7.33-12.69V27.46a6.36,6.36,0,0,0-2.7.63L70.59,81.88a14.65,14.65,0,0,0-7.33,12.69v189.9a4.87,4.87,0,0,0,.4,1.94Z"/><g class="cls-10"><path class="cls-5" d="M63.65,286.38a4.64,4.64,0,0,0,2.31-.64L159.14,232a14.67,14.67,0,0,0,7.33-12.69V27.46a6.36,6.36,0,0,0-2.7.63L70.59,81.88a14.65,14.65,0,0,0-7.33,12.69v189.9a4.87,4.87,0,0,0,.4,1.94Z"/></g><path class="cls-9" d="M102.65,53.77A3.74,3.74,0,0,1,101,56.68c-.93.53-1.68.1-1.68-1A3.72,3.72,0,0,1,101,52.8C101.89,52.27,102.65,52.7,102.65,53.77Z"/><path class="cls-9" d="M108.89,50.17a3.72,3.72,0,0,1-1.68,2.91c-.93.53-1.68.1-1.68-1a3.72,3.72,0,0,1,1.68-2.91C108.14,48.67,108.89,49.1,108.89,50.17Z"/><path class="cls-9" d="M134.08,37.56,113.79,49.28c-.8.46-1.46,0-1.46-1.1h0a3.51,3.51,0,0,1,1.46-2.78l20.29-11.71c.81-.47,1.46,0,1.46,1.09h0A3.47,3.47,0,0,1,134.08,37.56Z"/><path class="cls-9" d="M130.65,260h0c1.21,0,2,1.29,2,3.28,0,3.12-2,6.89-4.28,8.23l-9.7,5.61a3,3,0,0,1-1.45.45c-1.21,0-2-1.29-2-3.28,0-3.12,2-6.9,4.27-8.23l9.7-5.61a3,3,0,0,1,1.45-.45m0-.83a3.68,3.68,0,0,0-1.86.57l-9.71,5.6c-2.59,1.49-4.68,5.5-4.68,8.95,0,2.57,1.16,4.11,2.82,4.11a3.68,3.68,0,0,0,1.86-.57l9.71-5.6c2.59-1.49,4.68-5.5,4.68-9,0-2.57-1.16-4.11-2.82-4.11Z"/></g><g id="Screen"><path class="cls-11" d="M77,108V323c0,3.9,1.43,6.52,3.62,7.37l.06,0h0L90,335.49l0-8.26-1-222.93-9.81-5A21.16,21.16,0,0,0,77,108Z"/><path class="cls-11" d="M90.49,336.34l-10-5.51c-2.5-1-3.93-3.93-3.93-7.83V108a21.64,21.64,0,0,1,2.13-9l.22-.47L89.4,104v.3l1,222.93ZM80.94,330l8.54,4.68,0-7.42-1-222.63L79.33,100A20.5,20.5,0,0,0,77.51,108V323c0,3.52,1.23,6.1,3.3,6.91l.13.06Z"/><path class="cls-2" d="M79.09,99.28l9.81,5,105-61.09,7-4.08-9.69-5.46-.27-.16h0c-1.55-.93-3.57-.87-5.8.42L85.77,91.31A17.89,17.89,0,0,0,79.09,99.28Z"/><path class="cls-2" d="M88.9,104.8a.46.46,0,0,1-.22-.06l-9.81-5a.5.5,0,0,1-.23-.65,18.39,18.39,0,0,1,6.88-8.2l99.39-57.39c2.3-1.32,4.54-1.47,6.31-.41l.07,0,.2.12,9.68,5.45a.52.52,0,0,1,.25.44.48.48,0,0,1-.25.43l-112,65.17A.59.59,0,0,1,88.9,104.8Zm-9.15-5.74,9.14,4.67,111-64.59-9.22-5.2-.07-.06c-1.43-.81-3.28-.65-5.22.47L86,91.74A17.13,17.13,0,0,0,79.75,99.06Z"/><path class="cls-12" d="M86.64,113.42v214c0,3.37,1.07,5.8,2.79,6.93l.56.31c1.49.7,3.36.55,5.39-.63l48.05-27.74,51.35-30.9a18.66,18.66,0,0,0,8.76-15.47v-214c0-3.26-1-5.62-2.62-6.81a3.7,3.7,0,0,0-.89-.5,5.86,5.86,0,0,0-5.25.69L95.38,97.68a15,15,0,0,0-6.48,6.62A21.24,21.24,0,0,0,86.64,113.42Z"/><path class="cls-13" d="M194.53,275q-24.09,14.36-48.16,28.75l-28.5,17-13,7.8L99.17,332c-1.75,1.05-3.61,2.55-5.55,3.22-3.2,1.12-6.09-1.45-6.18-4.62,0-.51,0-1,0-1.53V127.3c0-5.37,0-10.75,0-16.12a14.27,14.27,0,0,1,7.14-12.57c2.32-1.38,4.65-2.73,7-4.09l32.7-19.17L173,52.64c7.35-4.3,14.68-8.64,22.05-12.92,2.28-1.32,5.15-1.19,6.74,1.2a5.5,5.5,0,0,1,.76,3.16c0,1.91,0,3.83,0,5.75V260a17,17,0,0,1-8,15c-.55.33-.05,1.2.5.86a18,18,0,0,0,8.52-15.7V59.42c0-5.22.06-10.45,0-15.68a5.76,5.76,0,0,0-8.88-5c-2.44,1.4-4.85,2.84-7.28,4.26l-33.6,19.69-39.1,22.92c-6.91,4-13.85,8.07-20.74,12.15a15.24,15.24,0,0,0-7.51,13.31V329.75c0,.34,0,.69,0,1a5.74,5.74,0,0,0,7.45,5.41c1.89-.63,3.67-2.05,5.37-3.07l5.8-3.49,13-7.78q28.36-17,56.76-33.94L195,275.84A.5.5,0,0,0,194.53,275Z"/><path class="cls-13" d="M94,98.34,195.26,39a5.18,5.18,0,0,1,7.79,4.46V53h0l-116.08,67v-9.32A14.36,14.36,0,0,1,94,98.34Z"/><ellipse class="cls-3" cx="145" cy="139.64" rx="37.17" ry="21.46" transform="translate(-48.43 195.39) rotate(-60)"/><ellipse class="cls-14" cx="145" cy="139.64" rx="37.17" ry="21.46" transform="translate(-48.43 195.39) rotate(-60)"/><path class="cls-7" d="M140.28,139.75a1.18,1.18,0,0,1-1.18-1.18V130.8a11.57,11.57,0,0,1,5.31-9.19,4,4,0,0,1,6.48,3.75v7.77a1.18,1.18,0,0,1-2.36,0v-7.77a2.3,2.3,0,0,0-.79-2,2.26,2.26,0,0,0-2.15.33,9.29,9.29,0,0,0-4.13,7.15v7.77A1.18,1.18,0,0,1,140.28,139.75Z"/><path class="cls-3" d="M154.52,128.12a1.76,1.76,0,0,0-1.66.18l-15.73,9.08a5,5,0,0,0-1.66,1.74,6.74,6.74,0,0,0-1,3.39v13.61a2.51,2.51,0,0,0,.78,2.07,1.12,1.12,0,0,0,.28.16h0a1.77,1.77,0,0,0,1.62-.2l15.73-9.08a6.42,6.42,0,0,0,2.68-5.13V130.33A2.29,2.29,0,0,0,154.52,128.12Z"/><path class="cls-8" d="M146.78,142.3l1.52,4.36L143,149.73l1.33-5.38.19-.76c-.9,0-1.52-.67-1.52-1.89a4.77,4.77,0,0,1,.25-1.46,6,6,0,0,1,2.41-3.16c1.48-.85,2.67-.16,2.67,1.54a5.92,5.92,0,0,1-1.53,3.66Z"/><path class="cls-7" d="M144.3,144.35l.19-.76c-.9,0-1.52-.67-1.52-1.89a4.77,4.77,0,0,1,.25-1.46l3.56,2.06,1.52,4.36Z"/><path class="cls-3" d="M183.77,190l-77.55,44.77c-3.21,1.85-5.81-.12-5.81-4.39V218.6c0-4.28,2.6-9.25,5.81-11.1l77.55-44.77c3.21-1.85,5.81.11,5.81,4.39v11.75C189.58,183.15,187,188.11,183.77,190Z"/><rect class="cls-12" x="118.68" y="206.44" width="1.5" height="12.43"/><rect class="cls-12" x="113.21" y="211.91" width="12.43" height="1.5" transform="matrix(0.87, -0.5, 0.5, 0.87, -90.34, 88.22)"/><rect class="cls-12" x="118.68" y="208.26" width="1.5" height="8.79" transform="translate(-124.46 209.76) rotate(-60)"/><rect class="cls-12" x="111.81" y="211.91" width="15.23" height="1.5" transform="matrix(0.5, -0.87, 0.87, 0.5, -124.46, 209.74)"/><rect class="cls-12" x="144.25" y="192.52" width="1.5" height="12.43"/><rect class="cls-12" x="138.78" y="197.98" width="12.43" height="1.5" transform="translate(-79.95 99.14) rotate(-30)"/><rect class="cls-12" x="144.25" y="194.34" width="1.5" height="8.79" transform="translate(-99.61 224.94) rotate(-60)"/><rect class="cls-12" x="137.38" y="197.98" width="15.23" height="1.5" transform="matrix(0.5, -0.87, 0.87, 0.5, -99.61, 224.92)"/><rect class="cls-12" x="169.81" y="178.59" width="1.5" height="12.43"/><rect class="cls-12" x="164.35" y="184.06" width="12.43" height="1.5" transform="matrix(0.87, -0.5, 0.5, 0.87, -69.56, 110.05)"/><rect class="cls-12" x="169.82" y="180.41" width="1.5" height="8.79" transform="translate(-74.76 240.12) rotate(-60)"/><rect class="cls-12" x="162.95" y="184.06" width="15.23" height="1.5" transform="translate(-74.77 240.11) rotate(-60)"/><path class="cls-3" d="M186.08,206.15c1,0,1.5,1.55,1.5,3.09V221c0,3.57-2.2,7.86-4.81,9.37l-77.55,44.77a2.75,2.75,0,0,1-1.3.43c-1,0-1.51-1.55-1.51-3.09V260.72c0-3.57,2.21-7.86,4.81-9.37l77.55-44.77a2.78,2.78,0,0,1,1.31-.43m0-2a4.7,4.7,0,0,0-2.31.7l-77.55,44.77c-3.21,1.85-5.81,6.82-5.81,11.1v11.75c0,3.18,1.45,5.09,3.51,5.09a4.7,4.7,0,0,0,2.3-.7l77.55-44.77c3.21-1.85,5.81-6.82,5.81-11.1V209.24c0-3.18-1.44-5.09-3.5-5.09Z"/><text class="cls-15" transform="matrix(0.87, -0.5, 0, 1, 125.97, 255.26)">enter</text></g><g id="Icons"><path class="cls-8" d="M300.21,72.62a5,5,0,0,0,2.31,3.93c1.28.72,2.31.13,2.31-1.31a5,5,0,0,0-2.31-3.93C301.25,70.59,300.21,71.17,300.21,72.62Z"/><path class="cls-8" d="M269.24,81.94a11.81,11.81,0,0,1-5.75-1.73l-7.33-4.15a.51.51,0,0,1-.19-.68.5.5,0,0,1,.68-.19L264,79.34c3.16,1.8,6.1,2.08,8.27.82s3.29-3.85,3.29-7.36c0-3.87,1.35-6.79,3.8-8.22s5.78-1.16,9.26.81l11.85,6.71A.5.5,0,0,1,300,73l-11.85-6.71c-3.16-1.79-6.1-2.08-8.27-.81s-3.3,3.85-3.3,7.35c0,3.88-1.34,6.8-3.79,8.22A6.93,6.93,0,0,1,269.24,81.94Z"/><path class="cls-8" d="M253.14,73.82A4,4,0,0,0,255,77c1,.59,1.87.11,1.87-1.06A4,4,0,0,0,255,72.76C254,72.17,253.14,72.65,253.14,73.82Z"/><path class="cls-8" d="M300.21,160a5,5,0,0,0,2.31,3.93c1.28.72,2.31.13,2.31-1.31a5,5,0,0,0-2.31-3.93C301.25,158,300.21,158.58,300.21,160Z"/><path class="cls-8" d="M300.3,161.12a.5.5,0,0,1-.24-.06l-11.85-6.72c-6.93-3.92-12.57-13.51-12.57-21.36,0-7.54-5.41-16.73-12.06-20.5l-7.42-4.2a.51.51,0,0,1-.19-.68.49.49,0,0,1,.68-.19l7.42,4.2c6.93,3.93,12.57,13.51,12.57,21.37,0,7.53,5.41,16.72,12.06,20.49l11.85,6.72a.5.5,0,0,1-.25.93Z"/><path class="cls-8" d="M253.14,105.85A4,4,0,0,0,255,109c1,.58,1.87.11,1.87-1.06a4,4,0,0,0-1.87-3.18C254,104.21,253.14,104.68,253.14,105.85Z"/><path class="cls-3" d="M371.42,63.19l-49-27.74a3,3,0,0,0-3.56,0l-4.23,2.92,2.88,3.57V93.57c0,3.61,2.2,7.8,4.91,9.37l47.76,27,.22,3.84,4.46-3.06a4.59,4.59,0,0,0,1.44-3.79V72.56C376.32,69,374.12,64.76,371.42,63.19Z"/><path class="cls-16" d="M371.42,63.19l-49-27.74a3,3,0,0,0-3.56,0l-4.23,2.92,2.88,3.57V93.57c0,3.61,2.2,7.8,4.91,9.37l47.76,27,.22,3.84,4.46-3.06a4.59,4.59,0,0,0,1.44-3.79V72.56C376.32,69,374.12,64.76,371.42,63.19Z"/><path class="cls-3" d="M367.25,133.54l-49-27.74c-2.71-1.56-4.9-5.76-4.9-9.37V42c0-3.61,2.19-5.27,4.9-3.71l49,27.74c2.71,1.56,4.91,5.76,4.91,9.37v54.41C372.16,133.45,370,135.11,367.25,133.54Z"/><path class="cls-5" d="M357,86.46a.49.49,0,0,1-.48-.37,40.18,40.18,0,0,0-4.8-10.92.49.49,0,0,1,.16-.69.48.48,0,0,1,.68.16,41.11,41.11,0,0,1,4.92,11.19.5.5,0,0,1-.35.62Z"/><path class="cls-5" d="M358.09,96.63h0a.5.5,0,0,1-.46-.54c0-.53.05-1.09.05-1.66a30.17,30.17,0,0,0-.45-5.1.49.49,0,0,1,.41-.58.48.48,0,0,1,.57.41,31.16,31.16,0,0,1,.47,5.27c0,.59,0,1.17-.06,1.73A.49.49,0,0,1,358.09,96.63Z"/><path class="cls-5" d="M327.5,80a.49.49,0,0,1-.5-.45c-.08-.87-.11-1.74-.11-2.57,0-4.86,1.3-8.86,3.68-11.29a.5.5,0,1,1,.71.7c-2.19,2.24-3.39,6-3.39,10.59,0,.8,0,1.64.11,2.48a.5.5,0,0,1-.46.54Z"/><path class="cls-5" d="M349.61,71.94a.51.51,0,0,1-.39-.18,24.15,24.15,0,0,0-6.7-5.88c-3.33-1.88-6.44-2.24-9-1a.5.5,0,0,1-.67-.24.5.5,0,0,1,.24-.66C336,62.59,339.39,63,343,65a25.39,25.39,0,0,1,7,6.12.5.5,0,0,1-.07.7A.48.48,0,0,1,349.61,71.94Z"/><path class="cls-5" d="M330.94,80.42a.51.51,0,0,1-.5-.48c0-.31,0-.62,0-.93,0-3.55.87-6.45,2.51-8.38a.5.5,0,1,1,.76.65c-1.49,1.75-2.27,4.42-2.27,7.73,0,.29,0,.59,0,.88a.5.5,0,0,1-.47.53Z"/><path class="cls-5" d="M334.87,70.12a.52.52,0,0,1-.43-.24.5.5,0,0,1,.17-.69,6.62,6.62,0,0,1,4.24-.92.49.49,0,0,1,.45.54.51.51,0,0,1-.55.45,5.72,5.72,0,0,0-3.62.78A.5.5,0,0,1,334.87,70.12Z"/><path class="cls-5" d="M357,103.06a.5.5,0,0,1-.46-.31l-.59-1.45a23.76,23.76,0,0,1-1.81-8.84c0-8.48-5.2-18.29-11.58-21.91a.5.5,0,0,1,.49-.87c6.67,3.78,12.09,14,12.09,22.74a22.79,22.79,0,0,0,1.74,8.5l.58,1.45a.49.49,0,0,1-.27.65A.43.43,0,0,1,357,103.06Z"/><path class="cls-5" d="M334,97.31a.5.5,0,0,1-.47-.33,61.72,61.72,0,0,1-3.1-14.6.5.5,0,0,1,.46-.54.52.52,0,0,1,.53.47,61.54,61.54,0,0,0,3.05,14.33.49.49,0,0,1-.3.64A.47.47,0,0,1,334,97.31Z"/><path class="cls-5" d="M354,106.43a.49.49,0,0,1-.47-.32l-1.33-3.6a32.15,32.15,0,0,1-2.16-11V87.59c0-4.67-3.35-10.36-7.46-12.69-1.93-1.09-3.7-1.28-5-.51s-2,2.32-2,4.45v3.47A47.05,47.05,0,0,0,339,98.8l1.66,4.3a.51.51,0,0,1-.29.65.5.5,0,0,1-.65-.29L338,99.16a48,48,0,0,1-3.41-16.85V78.84c0-2.5.88-4.39,2.47-5.32s3.76-.76,6,.51c4.4,2.49,8,8.57,8,13.56v3.93a31.44,31.44,0,0,0,2.09,10.65l1.34,3.59a.5.5,0,0,1-.47.67Z"/><path class="cls-5" d="M349.61,107.86a.51.51,0,0,1-.48-.35l-.7-2.36a45.25,45.25,0,0,1-2-12.77V86.29a8.66,8.66,0,0,0-4-6.82,2.56,2.56,0,0,0-2.54-.28,2.46,2.46,0,0,0-1,2.26c0,6.76,2.06,14.55,5.79,21.94l1.41,2.79a.51.51,0,0,1-.22.67.5.5,0,0,1-.67-.22l-1.41-2.79c-3.8-7.53-5.9-15.48-5.9-22.39a3.42,3.42,0,0,1,1.48-3.13,3.53,3.53,0,0,1,3.54.28,9.79,9.79,0,0,1,4.52,7.69v6.09a44.42,44.42,0,0,0,1.95,12.49l.7,2.35a.49.49,0,0,1-.34.62A.32.32,0,0,1,349.61,107.86Z"/><path class="cls-5" d="M344,97.31a.49.49,0,0,1-.49-.39l-.46-2.14a29.92,29.92,0,0,1-.67-6.26V82.89a.5.5,0,0,1,.5-.5.5.5,0,0,1,.5.5v5.63a28.59,28.59,0,0,0,.65,6l.46,2.14a.51.51,0,0,1-.39.59Z"/><path class="cls-5" d="M328.58,86.46a.49.49,0,0,1-.49-.45l-.29-2.92a.5.5,0,1,1,1-.1l.29,2.92a.5.5,0,0,1-.45.55Z"/><path class="cls-3" d="M371.42,155.85l-49-27.75a3,3,0,0,0-3.56,0L314.65,131l2.88,3.57v51.63c0,3.61,2.2,7.8,4.91,9.37l47.76,27,.22,3.84,4.46-3.05a4.61,4.61,0,0,0,1.44-3.8v-54.4C376.32,161.6,374.12,157.41,371.42,155.85Z"/><path class="cls-16" d="M371.42,155.85l-49-27.75a3,3,0,0,0-3.56,0L314.65,131l2.88,3.57v51.63c0,3.61,2.2,7.8,4.91,9.37l47.76,27,.22,3.84,4.46-3.05a4.61,4.61,0,0,0,1.44-3.8v-54.4C376.32,161.6,374.12,157.41,371.42,155.85Z"/><path class="cls-3" d="M367.25,226.2l-49-27.75c-2.71-1.56-4.9-5.75-4.9-9.37v-54.4c0-3.61,2.19-5.27,4.9-3.71l49,27.74c2.71,1.57,4.91,5.76,4.91,9.37v54.41C372.16,226.1,370,227.76,367.25,226.2Z"/><path class="cls-5" d="M324.27,149.86a.51.51,0,0,1-.5-.5V146a1.9,1.9,0,0,1,1-1.65,2,2,0,0,1,1.95,0l3.53,2a.49.49,0,0,1,.19.68.5.5,0,0,1-.68.19l-3.53-2a1,1,0,0,0-1,0,.9.9,0,0,0-.45.78v3.37A.5.5,0,0,1,324.27,149.86Z"/><path class="cls-5" d="M330,196.24a.55.55,0,0,1-.25-.07l-3.3-1.87a5.17,5.17,0,0,1-2.64-4.49V186.7a.51.51,0,0,1,.5-.5.5.5,0,0,1,.5.5v3.11a4.19,4.19,0,0,0,2.13,3.62l3.3,1.87a.5.5,0,0,1,.19.68A.51.51,0,0,1,330,196.24Z"/><path class="cls-5" d="M359.82,212.94a1.85,1.85,0,0,1-1-.26l-3.54-2a.5.5,0,0,1,.49-.87l3.54,2a1,1,0,0,0,.95,0,.88.88,0,0,0,.45-.78v-3.37a.5.5,0,0,1,.5-.5.5.5,0,0,1,.5.5V211a1.87,1.87,0,0,1-.95,1.64A1.9,1.9,0,0,1,359.82,212.94Z"/><path class="cls-5" d="M361.25,170.81a.5.5,0,0,1-.5-.5V167.2a4.15,4.15,0,0,0-2.13-3.61l-3.3-1.87a.52.52,0,0,1-.19-.69.5.5,0,0,1,.68-.18l3.31,1.87a5.18,5.18,0,0,1,2.63,4.48v3.11A.5.5,0,0,1,361.25,170.81Z"/><path class="cls-5" d="M328.71,166.68a69.08,69.08,0,0,0,2.41,16.81c3.81,14.33,18.79,23.14,22.91,13.43a38.21,38.21,0,0,0,2.79-15c0-8.8-6.3-19.5-14.06-23.9C334.84,153.48,328.59,157.65,328.71,166.68Z"/><polygon class="cls-2" points="342.26 174.69 342.26 184.11 338.17 181.05 342.26 174.69"/><path class="cls-2" d="M334.65,169.06a2.9,2.9,0,0,0,1.35,2.3c.74.42,1.35.08,1.35-.77A2.93,2.93,0,0,0,336,168.3C335.25,167.88,334.65,168.22,334.65,169.06Z"/><path class="cls-2" d="M347.18,176.24a2.9,2.9,0,0,0,1.35,2.29c.74.42,1.34.08,1.34-.76a2.94,2.94,0,0,0-1.34-2.3C347.78,175.05,347.18,175.39,347.18,176.24Z"/><path class="cls-2" d="M340.91,188.72l4.57-.77S344.51,192.83,340.91,188.72Z"/></g><g id="Character"><path class="cls-17" d="M267.2,197.51s7.29-.49,11.42,9.64c2.57,6.3,5.7,16,7.7,22.5a10.42,10.42,0,0,1-3.26,11.08L270.35,251.4l-4.54-8.27a86.68,86.68,0,0,1,8.68-9.93l-8.68-26Z"/><path class="cls-3" d="M270.56,228.45s11.58,1.53,14.47-7.4c0,0-5-13.07-7.23-17.41s-6.93-7.5-10.6-6.13S270.56,228.45,270.56,228.45Z"/><path class="cls-18" d="M270.56,228.45s11.58,1.53,14.47-7.4c0,0-5-13.07-7.23-17.41s-6.93-7.5-10.6-6.13S270.56,228.45,270.56,228.45Z"/><path class="cls-7" d="M262.84,345.71s-5.51-4.71-7.65-4.93-5.84,3.44-2.71,9.79c.87,1.77,4.41,3.68,6.62,7.07s4.2,5.94,7.58,5.47,3.83-2.37,3.61-4.58a52.71,52.71,0,0,0-1.21-6Z"/><path class="cls-9" d="M266.87,362.1c-3.5.48-5.55-2.15-7.82-5.64s-5.93-5.47-6.82-7.29a12.83,12.83,0,0,1-.88-2.27,11.19,11.19,0,0,0,1.13,3.67c.87,1.77,4.41,3.68,6.62,7.07s4.2,5.94,7.58,5.47c2.6-.35,3.46-1.56,3.62-3.1C269.86,361.05,268.87,361.83,266.87,362.1Z"/><path class="cls-13" d="M259.9,351.77a.45.45,0,0,1-.25-.07.53.53,0,0,1-.22-.72,8.62,8.62,0,0,1,5.17-4.06.54.54,0,0,1,.24,1.05,7.63,7.63,0,0,0-4.47,3.52A.54.54,0,0,1,259.9,351.77Z"/><path class="cls-13" d="M257.84,349.87a.57.57,0,0,1-.25-.06.53.53,0,0,1-.22-.72,8.58,8.58,0,0,1,5.18-4.06.53.53,0,1,1,.24,1,7.59,7.59,0,0,0-4.47,3.52A.54.54,0,0,1,257.84,349.87Z"/><path class="cls-13" d="M255.5,348a.58.58,0,0,1-.26-.06.55.55,0,0,1-.22-.73,8.65,8.65,0,0,1,5.18-4.05.53.53,0,0,1,.64.4.54.54,0,0,1-.4.64A7.59,7.59,0,0,0,256,347.7.53.53,0,0,1,255.5,348Z"/><path class="cls-7" d="M233.55,361.16s-7.37-2.39-9.57-1.73-4.35,5.8,1.35,10.79c1.59,1.39,5.86,1.82,9.44,4.26s6.58,4.14,9.74,2.29,2.9-4,2.34-6.29c-.72-2.94-1.29-5.08-1.29-5.08Z"/><path class="cls-9" d="M244.27,375.69c-3.25,1.91-6.35.16-10-2.36s-8.09-3-9.73-4.39a13.64,13.64,0,0,1-1.8-1.89,12,12,0,0,0,2.63,3.17c1.59,1.39,5.86,1.82,9.44,4.26s6.58,4.14,9.74,2.29c2.42-1.42,2.77-3,2.3-4.56C246.79,373.42,246.14,374.59,244.27,375.69Z"/><path class="cls-13" d="M231.8,368h-.06a.54.54,0,0,1-.48-.59,9.15,9.15,0,0,1,3.43-6.1.53.53,0,0,1,.62.87,8.16,8.16,0,0,0-3,5.34A.54.54,0,0,1,231.8,368Z"/><path class="cls-13" d="M234.84,369h-.05a.53.53,0,0,1-.48-.58,9.15,9.15,0,0,1,3.42-6.11.54.54,0,0,1,.75.13.53.53,0,0,1-.13.74,8.2,8.2,0,0,0-3,5.34A.54.54,0,0,1,234.84,369Z"/><path class="cls-13" d="M229,366.94h-.06a.54.54,0,0,1-.48-.58,9.21,9.21,0,0,1,3.43-6.11.54.54,0,0,1,.75.13.53.53,0,0,1-.13.74,8.2,8.2,0,0,0-3,5.34A.53.53,0,0,1,229,366.94Z"/><path class="cls-8" d="M269.42,347.12c.66-7.31,2.09-18.75,2.69-24.1a69.13,69.13,0,0,0-.58-20.31,16.79,16.79,0,0,1-.23-4.8c1.45-14.54,2.4-38.11,1.6-43.29l-20.42,4.32S255,292,256.08,303s5.2,44.2,5.2,44.2A7.4,7.4,0,0,0,269.42,347.12Z"/><path class="cls-17" d="M266.48,354.62a3.84,3.84,0,0,0,2.6-2.1c0-1.15.13-3.07.34-5.4a7.4,7.4,0,0,1-8.14.09l.73,6.14A5.26,5.26,0,0,0,266.48,354.62Z"/><path class="cls-8" d="M246.46,360c.83-11.05,2.44-32.47,2.65-35.84a53.09,53.09,0,0,0-.7-11.11,17.22,17.22,0,0,1,0-6l9-49.78-24.66-.36L231.13,309a15.16,15.16,0,0,0,.08,2l5.23,48.6h0S241.54,363.91,246.46,360Z"/><path class="cls-17" d="M242.35,369.07a4.63,4.63,0,0,0,3.61-2.54l.5-6.58c-4.92,4-10-.31-10-.31h0l.79,7.28S238.39,369.44,242.35,369.07Z"/><path class="cls-3" d="M244.15,200.83l-5.82,2-6.26,29.61.3,26.25s4.47,3.57,21.93,3.57c9.81,0,16.19-3.7,18.6-7.63l-1.58-15.86s1.58-15.63,1.58-23.35.34-14.07-5.7-17.9l-5.38.45Z"/><path class="cls-19" d="M244.15,200.83l-5.82,2-6.26,29.61.3,26.25s4.47,3.57,21.93,3.57c9.81,0,16.19-3.7,18.6-7.63l-1.58-15.86s1.58-15.63,1.58-23.35.34-14.07-5.7-17.9l-5.38.45Z"/><path class="cls-20" d="M237.83,175.38l-2.92,5.77a.66.66,0,0,0,.38.92l3.46,1.15Z"/><path class="cls-17" d="M241.86,165.71s-4.42,2.38-4.42,16c0,7.51.52,12.3,4.42,12S257,192,257,192V165.71Z"/><path class="cls-20" d="M241.86,193.76c1.37-.11,3.65-.36,6-.63v-1.4a31.1,31.1,0,0,1-6.68,2A3.5,3.5,0,0,0,241.86,193.76Z"/><polygon class="cls-17" points="247.22 191.15 247.22 199.72 258.95 199.72 258.95 187.68 247.22 191.15"/><path class="cls-3" d="M247.22,196.46s4.22,1.5,7.61.91,4.12-2.65,4.12-2.65,1.11-.09,2.87,3.24a8.63,8.63,0,0,1-6.85,4.42,26.65,26.65,0,0,1-10.82-1.55S245.78,196,247.22,196.46Z"/><path class="cls-18" d="M247.22,196.46s4.22,1.5,7.61.91,4.12-2.65,4.12-2.65,1.11-.09,2.87,3.24a8.63,8.63,0,0,1-6.85,4.42,26.65,26.65,0,0,1-10.82-1.55S245.78,196,247.22,196.46Z"/><path class="cls-17" d="M221.05,221.9l-3.15,4.84s-7.65-3.41-13-5.48a29.83,29.83,0,0,1-8.58-4.94,45.67,45.67,0,0,1,1-6.19c.62-2.1.83-3.85-1-2.92s-3.1,4.54-3.21,5c0,0-10.75-10.8-12.09-10.57s-1,1.86,1.86,5.19l2.89,3.34s-6.59,3.79-5.51,7.93,9.75,6,9.75,6,25.43,19.53,31.06,16,13.6-13.65,13.6-13.65Z"/><path class="cls-3" d="M240.63,202.06s4.7,3.86,1.64,11.84-10.87,17.62-10.87,17.62-8.18-2.55-11.34-9.16l10.32-16.15a8.68,8.68,0,0,1,6.76-4C238.11,202.15,239.27,202.1,240.63,202.06Z"/><path class="cls-18" d="M240.63,202.06s4.7,3.86,1.64,11.84-10.87,17.62-10.87,17.62-8.18-2.55-11.34-9.16l10.32-16.15a8.68,8.68,0,0,1,6.76-4C238.11,202.15,239.27,202.1,240.63,202.06Z"/><path class="cls-9" d="M240.17,157.67s-4.64-.62-5.82,2.57c-.74,2,1.62,3.54,1.62,3.54s-3,2.82,1.47,3.68a2.94,2.94,0,0,0,3.61,3.32s-.51,3,3.39,4.09c0,0-2,5.26,1.74,5.34h3.47l-1.4,4s2.6,6.26,10.7,6.26a52.55,52.55,0,0,1,3-5.53c1-1.25,6-7.66,6-12.74s-2-8.09-4.66-8.76a11.6,11.6,0,0,0-3.89-4.64c-2.72-1.85-8.47-3.49-11.71-1.23,0,0-2.87-3.77-4.86-3.77S240.17,155.9,240.17,157.67Z"/><path class="cls-17" d="M246.18,180.21s-.34-5.34,4.15-5.34,3.43,9.39-2.08,9.39Z"/></g></g></svg>