<svg id="Layer_1" data-name="Layer 1" xmlns="http://www.w3.org/2000/svg" viewBox="0 0 130 50"><defs><style>.cls-1{font-size:43px;font-family:Roboto-Black, Roboto Black;font-weight:800;} *{color:#272e3a;fill:#272e3a;}</style></defs><g id="qr"><path d="M2.07,45V5H41.91c.16.92.23,36.23.07,40Zm1.09-1.09H40.9c.16-4.25.09-36.9-.08-37.82H3.16Z"/><path d="M22.72,35.43h3.63V34.2h1.1v1.21h1.23a2.73,2.73,0,0,1,.08,1.1H27.57c-.23.43,0,.88-.16,1.31h-1c-.18-.38,0-.83-.13-1.25H24.68v1.68c.65.1,1.37,0,2,0l.28.28v1H23.61l-.28-.35V36.57H21.62V25.67H8.18V24.36H21.56V11.17a2.74,2.74,0,0,1,.53-.13,2.68,2.68,0,0,1,.56,0V24.31H33.52V26.5h2.82V30H35.29V27.65H33.6v1.68h.85c.48.26.4.64.39,1l-.36.33h-.92v.94l-.34.35h-.67c-.22-.39,0-.84-.15-1.28H31.2V29.37h1.22v-3.6a91.45,91.45,0,0,0-9.7-.08Z"/><path d="M23.37,10.7l.29-.29c3.25,0,6.54,0,9.82,0A7.87,7.87,0,0,1,35,10.7a1.2,1.2,0,0,1,.93.76c.08.28.31.38.45.59V22.69c0,.34.12.74-.33,1H23.64l-.27-.27ZM35,12c-.38-.43-.82-.32-1.23-.32H24.69V22.36H35.25a2.35,2.35,0,0,0,0-.34c0-3,0-5.94,0-8.92A2,2,0,0,0,35,12Z"/><path d="M20.5,10.41V23.65H7.77l-.29-.28V13.52a3.44,3.44,0,0,1,2.17-2.9,6.37,6.37,0,0,1,2.3-.21Zm-1.09,1.3H9.54l-.72.76v9.87H19.41Z"/><path d="M20.48,39.59c-3.47,0-6.9,0-10.33,0a2.37,2.37,0,0,1-2.3-1.45s-.37-1.76-.37-1.81V26.57h13Zm-11.69-12c0,3.15,0,6.19,0,9.23a1.75,1.75,0,0,0,.52,1.4H19.39V27.63Z"/><path d="M23.37,26.54h7.1v5.71a.71.71,0,0,0,.11.12.14.14,0,0,0,.09,0h5.66v7.12l0,0a.21.21,0,0,1-.1,0H29.46V33.65l-.11-.12a.19.19,0,0,0-.1,0H23.37Zm6,1.11H24.63c0,1.61,0,3.18.05,4.72H29.4Zm1.14,5.86v4.78c1.61,0,3.18,0,4.71,0V33.51Z"/><path d="M26.83,20.17V13.93H33s0,0,0,0a.32.32,0,0,1,0,.09v6.11Z"/><path d="M11,13.91h6.23v6.22s0,0,0,0a.15.15,0,0,1-.09,0H11Z"/><path d="M11,36.07V29.83h6.21l0,0a.16.16,0,0,1,0,.09c0,2,0,4,0,6.11Z"/></g><text class="cls-1" transform="translate(44.26 40.57)">dine</text></svg>