<svg width="135" height="50" viewBox="0 0 135 50" fill="none" xmlns="http://www.w3.org/2000/svg">
  <g clip-path="url(#clip0_43_33)">
    <path d="M41.32 27.84C41.32 25.6 41.76 23.6133 42.64 21.88C43.5467 20.1467 44.7733 18.8133 46.32 17.88C47.8667 16.9467 49.5867 16.48 51.48 16.48C52.92 16.48 54.2933 16.8 55.6 17.44C56.9067 18.0533 57.9467 18.88 58.72 19.92V9.4H64.4V39H58.72V35.72C58.0267 36.8133 57.0533 37.6933 55.8 38.36C54.5467 39.0267 53.0933 39.36 51.44 39.36C49.5733 39.36 47.8667 38.88 46.32 37.92C44.7733 36.96 43.5467 35.6133 42.64 33.88C41.76 32.12 41.32 30.1067 41.32 27.84ZM58.76 27.92C58.76 26.56 58.4933 25.4 57.96 24.44C57.4267 23.4533 56.7067 22.7067 55.8 22.2C54.8933 21.6667 53.92 21.4 52.88 21.4C51.84 21.4 50.88 21.6533 50 22.16C49.12 22.6667 48.4 23.4133 47.84 24.4C47.3067 25.36 47.04 26.5067 47.04 27.84C47.04 29.1733 47.3067 30.3467 47.84 31.36C48.4 32.3467 49.12 33.1067 50 33.64C50.9067 34.1733 51.8667 34.44 52.88 34.44C53.92 34.44 54.8933 34.1867 55.8 33.68C56.7067 33.1467 57.4267 32.4 57.96 31.44C58.4933 30.4533 58.76 29.28 58.76 27.92ZM72.7094 14.2C71.7227 14.2 70.896 13.8933 70.2294 13.28C69.5894 12.64 69.2694 11.8533 69.2694 10.92C69.2694 9.98667 69.5894 9.21333 70.2294 8.6C70.896 7.96 71.7227 7.64 72.7094 7.64C73.696 7.64 74.5094 7.96 75.1494 8.6C75.816 9.21333 76.1494 9.98667 76.1494 10.92C76.1494 11.8533 75.816 12.64 75.1494 13.28C74.5094 13.8933 73.696 14.2 72.7094 14.2ZM75.4694 16.84V39H69.8694V16.84H75.4694ZM93.2822 16.52C95.9222 16.52 98.0555 17.36 99.6822 19.04C101.309 20.6933 102.122 23.0133 102.122 26V39H96.5222V26.76C96.5222 25 96.0822 23.6533 95.2022 22.72C94.3222 21.76 93.1222 21.28 91.6022 21.28C90.0555 21.28 88.8289 21.76 87.9222 22.72C87.0422 23.6533 86.6022 25 86.6022 26.76V39H81.0022V16.84H86.6022V19.6C87.3489 18.64 88.2955 17.8933 89.4422 17.36C90.6155 16.8 91.8955 16.52 93.2822 16.52ZM128.048 27.44C128.048 28.24 127.994 28.96 127.888 29.6H111.688C111.821 31.2 112.381 32.4533 113.368 33.36C114.354 34.2667 115.568 34.72 117.008 34.72C119.088 34.72 120.568 33.8267 121.448 32.04H127.488C126.848 34.1733 125.621 35.9333 123.808 37.32C121.994 38.68 119.768 39.36 117.128 39.36C114.994 39.36 113.074 38.8933 111.368 37.96C109.688 37 108.368 35.6533 107.408 33.92C106.474 32.1867 106.007 30.1867 106.007 27.92C106.007 25.6267 106.474 23.6133 107.408 21.88C108.341 20.1467 109.648 18.8133 111.328 17.88C113.008 16.9467 114.941 16.48 117.128 16.48C119.234 16.48 121.114 16.9333 122.768 17.84C124.448 18.7467 125.741 20.04 126.648 21.72C127.581 23.3733 128.048 25.28 128.048 27.44ZM122.248 25.84C122.221 24.4 121.701 23.2533 120.688 22.4C119.674 21.52 118.434 21.08 116.968 21.08C115.581 21.08 114.408 21.5067 113.448 22.36C112.514 23.1867 111.941 24.3467 111.728 25.84H122.248Z" fill="#272E3A"/>
    <path fill-rule="evenodd" clip-rule="evenodd" d="M36.7153 7H9C7.89543 7 7 7.89543 7 9V41C7 42.1046 7.89543 43 9 43H33.1792C34.065 43 34.8387 42.443 35.2582 41.3515C35.4859 40.7591 35.5609 40.1091 35.4814 39.49H32.4599V33.65L32.3499 33.53C32.3172 33.5211 32.2827 33.5211 32.2499 33.53H26.3699V26.54H31.4685C31.4907 26.2569 31.5201 25.9719 31.5565 25.6848C29.4283 25.5677 28.4106 25.5694 25.7199 25.6901V35.4301H29.3499V34.2001H30.4499V35.4101H31.6799C31.7812 35.7675 31.8084 36.1418 31.7599 36.5101H30.5699C30.4454 36.7428 30.4557 36.9814 30.466 37.2195C30.4747 37.4213 30.4833 37.6228 30.4099 37.8201H29.4099C29.3134 37.6162 29.3204 37.3921 29.3276 37.1634C29.3338 36.9658 29.3402 36.7647 29.2799 36.5701H27.6799V38.2501C28.1173 38.3173 28.5864 38.2941 29.0384 38.2717H29.0385H29.0386H29.0387H29.0388H29.0389H29.039H29.0391C29.2586 38.2608 29.4741 38.2501 29.6799 38.2501L29.9599 38.5301V39.5301H26.6099L26.3299 39.1801V36.5701H24.6199V25.6701H11.1799V24.3601H24.5599V11.1701C24.7318 11.1092 24.9094 11.0656 25.0899 11.0401C25.2761 11.0205 25.4638 11.0205 25.6499 11.0401V24.3101H31.7825C31.8238 24.1041 31.8687 23.8974 31.917 23.6899H26.6399L26.3699 23.4199V10.6999L26.6599 10.4099H36.4799C36.9949 10.4564 37.504 10.5535 37.9999 10.6999C38.0794 10.7128 38.157 10.7336 38.2317 10.7619C38.2874 10.68 38.3435 10.5979 38.3998 10.5157C39.465 8.96204 38.31 7 36.7153 7ZM34.9028 37.9762C34.3811 37.2508 33.9165 36.5195 33.5099 35.7803V38.29H35.1C35.0407 38.1814 34.9749 38.0765 34.9028 37.9762ZM32.0693 32.37C31.6157 30.8477 31.3958 29.2803 31.4172 27.65H27.6299C27.6299 29.26 27.6299 30.83 27.6799 32.37H32.0693ZM36.5121 13.4051C36.5909 12.9598 37 12 37 12C37 12 37.1799 11.6799 36.7699 11.6799H27.6899V22.3599H32.27C32.4874 21.6288 32.7454 20.8876 33.0429 20.1349L29.8299 20.1699V13.9299H36.1911C36.2965 13.7557 36.4035 13.5807 36.5121 13.4051ZM9 5C6.79086 5 5 6.79086 5 9V41C5 43.2091 6.79086 45 9 45H33.1792C37.0049 45 38.7601 39.9145 36.5265 36.8085C31.4241 29.7131 32.5991 22.5137 40.0494 11.6466C41.9422 8.88573 40.0627 5 36.7153 5H9ZM23.4999 10.41V23.65H10.7699L10.4799 23.37V13.52C10.5361 12.8827 10.769 12.2736 11.1523 11.7613C11.5357 11.249 12.0543 10.8538 12.6499 10.62C13.3974 10.4105 14.1769 10.3393 14.9499 10.41H23.4999ZM22.4099 11.71H12.5399L11.8199 12.47V22.34H22.4099V11.71ZM13.1499 39.5901H23.4799V26.5701H10.4799V36.3301C10.4799 36.3801 10.8499 38.1401 10.8499 38.1401C11.0382 38.5886 11.3598 38.9683 11.7713 39.2277C12.1828 39.4871 12.6641 39.6136 13.1499 39.5901ZM11.7899 36.8201V27.5901L22.3899 27.6301V38.2201H12.3099C12.1253 38.0395 11.983 37.8204 11.8931 37.5783C11.8032 37.3363 11.7679 37.0773 11.7899 36.8201ZM13.9999 13.9099H20.2299V20.1299C20.2006 20.1391 20.1692 20.1391 20.1399 20.1299H13.9999V13.9099ZM13.9999 29.8301V36.0701L20.2099 36.0301V29.9201C20.2185 29.8907 20.2185 29.8595 20.2099 29.8301H13.9999Z" fill="#272E3A"/>
  </g>
  <defs>
    <clipPath id="clip0_43_33">
      <rect width="135" height="50" fill="white"/>
    </clipPath>
  </defs>
</svg>
